<?xml version="1.0" encoding="UTF-8" standalone="no"?>
<svg
   xmlns:dc="http://purl.org/dc/elements/1.1/"
   xmlns:cc="http://creativecommons.org/ns#"
   xmlns:rdf="http://www.w3.org/1999/02/22-rdf-syntax-ns#"
   xmlns:svg="http://www.w3.org/2000/svg"
   xmlns="http://www.w3.org/2000/svg"
   xmlns:sodipodi="http://sodipodi.sourceforge.net/DTD/sodipodi-0.dtd"
   xmlns:inkscape="http://www.inkscape.org/namespaces/inkscape"
   enable-background="new 0 0 30 30"
   height="30px"
   id="Capa_1"
   version="1.1"
   viewBox="0 0 30 30"
   width="30px"
   xml:space="preserve"
   sodipodi:docname="i_alarm4.svg"
   inkscape:version="0.92.4 (5da689c313, 2019-01-14)"><metadata
     id="metadata831"><rdf:RDF><cc:Work
         rdf:about=""><dc:format>image/svg+xml</dc:format><dc:type
           rdf:resource="http://purl.org/dc/dcmitype/StillImage" /><dc:title></dc:title></cc:Work></rdf:RDF></metadata><defs
     id="defs829" /><sodipodi:namedview
     pagecolor="#ffffff"
     bordercolor="#666666"
     borderopacity="1"
     objecttolerance="10"
     gridtolerance="10"
     guidetolerance="10"
     inkscape:pageopacity="0"
     inkscape:pageshadow="2"
     inkscape:window-width="1920"
     inkscape:window-height="1017"
     id="namedview827"
     showgrid="false"
     inkscape:zoom="28.266667"
     inkscape:cx="15"
     inkscape:cy="15"
     inkscape:window-x="1912"
     inkscape:window-y="-8"
     inkscape:window-maximized="1"
     inkscape:current-layer="Capa_1" /><path
     d="M18.9,16.1l-3.4,0V9c0-0.4-0.3-0.8-0.8-0.8S14,8.6,14,9v7.9c0,0,0,0,0,0c0,0,0,0,0,0c0,0.1,0,0.1,0,0.2  c0,0,0,0.1,0,0.1c0,0.1,0.1,0.1,0.1,0.2c0,0,0,0.1,0.1,0.1c0,0,0.1,0.1,0.2,0.1c0,0,0,0,0.1,0c0.1,0,0.2,0.1,0.3,0.1h0l4.1,0  c0.4,0,0.7-0.3,0.7-0.8S19.3,16.1,18.9,16.1z M4.3,8.1c0.1,0,0.3,0,0.4-0.1l6.6-4.5c0.2-0.1,0.3-0.3,0.3-0.5c0-0.2,0-0.4-0.1-0.6  c-0.9-1.3-2.4-2.1-3.9-2.1c-1,0-1.9,0.3-2.7,0.8c-1,0.7-1.8,1.8-2,3.1s0,2.5,0.8,3.6C3.8,8,4.1,8.1,4.3,8.1z M4.4,4.5  c0.2-0.9,0.6-1.6,1.4-2.1C6.3,2,7,1.8,7.6,1.8c0.8,0,1.6,0.3,2.2,0.8L4.6,6.2C4.4,5.7,4.3,5.1,4.4,4.5z M27.1,4.2  c-0.2-1.2-0.9-2.3-2-3.1c-0.8-0.5-1.7-0.8-2.7-0.8c-1.6,0-3,0.8-3.9,2.1c-0.1,0.2-0.2,0.4-0.1,0.6c0,0.2,0.1,0.4,0.3,0.5l6.6,4.5  c0.1,0.1,0.3,0.1,0.4,0.1c0,0,0.1,0,0.1,0c0.2,0,0.4-0.1,0.5-0.3C27,6.7,27.3,5.4,27.1,4.2z M25.4,6.2l-5.2-3.6c1.1-1,2.8-1.1,4-0.3  c0.7,0.5,1.2,1.2,1.4,2.1C25.7,5.1,25.6,5.7,25.4,6.2z M26.1,16.5c0-6.2-5.1-11.3-11.3-11.3S3.5,10.3,3.5,16.5  c0,3.6,1.7,6.8,4.3,8.9l-2.5,3.1c-0.3,0.3-0.2,0.8,0.1,1.1c0.1,0.1,0.3,0.2,0.5,0.2c0.2,0,0.4-0.1,0.6-0.3l2.6-3.2  c1.7,1,3.6,1.6,5.7,1.6c2.2,0,4.3-0.6,6-1.7l2.8,3.4c0.1,0.2,0.4,0.3,0.6,0.3c0.2,0,0.3-0.1,0.5-0.2c0.3-0.3,0.4-0.7,0.1-1.1  L22,25.2C24.5,23.1,26.1,20,26.1,16.5z M14.8,26.3c-5.4,0-9.8-4.4-9.8-9.8c0-5.4,4.4-9.8,9.8-9.8s9.8,4.4,9.8,9.8  C24.6,21.9,20.2,26.3,14.8,26.3z"
     fill="#262324"
     id="path824"
     style="fill:#66a55f;fill-opacity:1" /></svg>