<?xml version="1.0" encoding="UTF-8" standalone="no"?>
<svg
   xmlns:dc="http://purl.org/dc/elements/1.1/"
   xmlns:cc="http://creativecommons.org/ns#"
   xmlns:rdf="http://www.w3.org/1999/02/22-rdf-syntax-ns#"
   xmlns:svg="http://www.w3.org/2000/svg"
   xmlns="http://www.w3.org/2000/svg"
   xmlns:sodipodi="http://sodipodi.sourceforge.net/DTD/sodipodi-0.dtd"
   xmlns:inkscape="http://www.inkscape.org/namespaces/inkscape"
   x="0px"
   y="0px"
   width="120px"
   height="110px"
   viewBox="0 0 95 70"
   version="1.1"
   id="svg2333"
   sodipodi:docname="i_dessert.svg"
   inkscape:version="0.92.4 (5da689c313, 2019-01-14)">
  <metadata
     id="metadata2339">
    <rdf:RDF>
      <cc:Work
         rdf:about="">
        <dc:format>image/svg+xml</dc:format>
        <dc:type
           rdf:resource="http://purl.org/dc/dcmitype/StillImage" />
        <dc:title></dc:title>
      </cc:Work>
    </rdf:RDF>
  </metadata>
  <defs
     id="defs2337" />
  <sodipodi:namedview
     pagecolor="#ffffff"
     bordercolor="#666666"
     borderopacity="1"
     objecttolerance="10"
     gridtolerance="10"
     guidetolerance="10"
     inkscape:pageopacity="0"
     inkscape:pageshadow="2"
     inkscape:window-width="1920"
     inkscape:window-height="1017"
     id="namedview2335"
     showgrid="false"
     inkscape:zoom="2.1454545"
     inkscape:cx="60"
     inkscape:cy="55"
     inkscape:window-x="-8"
     inkscape:window-y="-8"
     inkscape:window-maximized="1"
     inkscape:current-layer="svg2333" />
  <g
     id="g2331"
     style="fill:#66a541;fill-opacity:1">
    <path
       d="M82.667,39.167c1.336-2.324,0.697-5.148-1.5-6.861c-0.2-0.153-0.431-0.153-0.614-0.068                      c-0.31-0.15-0.655-0.242-1.024-0.277c0.184-0.848,0.283-1.772,0.018-2.602c0.171-1.139-0.531-2.131-1.519-2.651                      c-2.54-2.108-6.474-3.694-9.663-3.446c-0.854-3.07-5.81-4.228-9-4.492c0.231-0.28,0.446-0.574,0.623-0.894                      c0.834-1.501,0.576-3.59-0.383-4.977c2.821,0.277,6.355-2.52,5.108-2.783c-2.526-0.532-4.053-2.921-6.718-3.09                      c-0.164-0.011-0.33-0.012-0.496-0.01c0.33-0.879,0.288-1.988,0.029-2.793c-0.187-0.58-1.762-2.34-1.527-2.8                      c0.237-0.465-0.324-0.902-0.717-0.554c-0.771,0.685-1.77,1.535-2.265,2.534c-1.307-1.62-2.969-1.562-3.977-2.977                      c-0.961-1.349-1.822,3.48,0.077,6.257c-2.67-0.471-5.435,1.109-6.011,5.173c-0.142,1.001-0.226,1.968-0.335,2.924                      c-1.618-0.307-3.741,0.07-5.318,1.069c0.975-4.081-3.428-3.593-3.239-6.065c0.018-0.24-0.338-0.398-0.495-0.205                      c-1.996,2.458-2.822,5.696-1.351,8.233c-1.958-1.05-4.345-1.642-6.397-1.308c-2.652,0.433-5.052,2.543-7.037,4.291                      c-0.213,0.011-0.425,0.026-0.635,0.056c-0.213,0.028-0.151,0.312,0,0.372c1.024,0.413,2.381,0.83,3.876,1.145                      c-0.51,0.235-1.757,0.978-2.164,1.333c-3.231,0.428-7.952,1.68-7.676,4.919c-0.928,1.762,0.343,4.981,1.344,6.023                      c-0.159,0.272,0.395,0.484,1.322,0.94c-1.083,0.639-1.509,1.885-1.216,3.102c-0.677-0.019-5.069,2.129-7.198,3.833                      C-8.994,55.054,12.6,71.202,50.963,69.788C91.792,68.354,103.984,50.184,82.667,39.167z M82.182,35.701                      c2.008,7.541-21.178,9.592-28.915,9.488c-0.031-0.221-0.047-0.669-0.057-0.911c2.691-0.093,5.943-0.41,8.685-0.778                      c5.039-0.71,8.291-1.479,12.144-2.499c-6.671,1.288-13.344,2.287-20.852,2.585c-0.001-0.05-0.003-0.101-0.004-0.151                      c7.738-0.225,15.956-1.296,23.502-3.487C78.916,39.3,81.657,38.259,82.182,35.701z M50.151,51.845                      c0.043,0.254,0.168,0.51,0.373,0.685c-10.074-0.084-24.931-1.837-28.235-2.406c-2.589-0.447-4.95-1.28-7.382-2.171                      c-0.835-0.939-1.605-1.648-2.134-2.798c1.979,1.575,5.366,1.761,7.577,2.109c4.958,0.783,23.041,3.431,28.045,2.858                      c0.374,0.068,0.749,0.123,1.127,0.166c0.046,0.466,0.183,0.903,0.451,1.261c-1.919-0.062-0.715-0.007-3.269-0.149                      C48.42,51.658,48.435,51.674,50.151,51.845z M53.627,56.87c-3.389,0.024-20.086-0.579-29.928-2.629                      c-3.879-0.808-7.857-2.082-9.717-5.512c0.3,0.205,0.548,0.379,0.864,0.135c4.547,3.076,11.408,3.066,16.575,3.621                      c12.287,1.32,27.804,2.507,41.654-1.571c2.593-0.764,6.902-1.991,8.925-4.405C84.117,54.313,61.337,56.817,53.627,56.87z                      M81.709,50.892c-5.409,11.909-47.299,9.024-59.835,5.379c-3.496-1.016-7.151-2.68-8.337-5.958                      c1.239,1.772,3.402,3.013,5.351,3.774c4.426,1.731,9.439,2.09,14.115,2.635c13.164,1.532,27.5,2.672,40.318-1.491                      C76.098,54.329,79.769,53.234,81.709,50.892z M75.336,49.004c-7.563,2.669-15.253,3.491-23.181,3.528                      c0.241-0.131,0.456-0.31,0.617-0.516c6.698,0.257,13.181-0.863,18.716-2.904c0.63-0.215,1.186-0.45,1.678-0.644                      c0.493-0.191,0.91-0.373,1.249-0.526c0.678-0.304,1.054-0.473,1.054-0.473s-0.389,0.132-1.093,0.371                      c-0.35,0.123-0.779,0.269-1.284,0.421c-0.504,0.155-1.071,0.347-1.711,0.52c-5.136,1.52-11.574,2.639-18.307,2.774                      c0.179-0.317,0.329-0.669,0.444-1.042c1.721,0.002,3.432-0.081,5.042-0.17c4.26-0.23,8.519-0.853,12.626-2.008                      c2.175-0.609,9.541-3.036,10.818-4.916C82.099,46.608,77.903,48.098,75.336,49.004z M53.687,47.761                      c2.148-0.253,4.103-0.751,5.103-1.093c-1.916,0.188-2.968,0.302-5.289,0.455c-0.01-0.026-0.018-0.052-0.029-0.077                      c-0.015-0.258-0.037-0.519-0.066-0.783c8.004,0.008,15.952-0.759,23.653-3.476c1.179-0.417,2.427-0.87,3.502-1.536                      c1.324,1.798,0.441,2.035-2.742,3.502c-1.471,0.678-2.985,1.266-4.524,1.777c-6.209,2.064-13.383,2.957-19.54,2.775                      C53.806,48.78,53.787,48.253,53.687,47.761z M79.302,32.897c2.787,0.087,2.023,3.229,0.897,4.322                      c-1.978,1.919-14.19,4.793-27.001,5.197c0.026-0.53,0.084-1.054,0.199-1.561c9.489,1.121,25.109-5.069,24.933-6.09                      C78.818,34.354,79.109,33.591,79.302,32.897z M77.522,34.457c-12.694,5.376-16.703,4.523-23.812,5.413                      c0.155-0.369,0.332-0.692,0.6-1.04c4.543-0.327,8.099-1.055,11.877-2.093c-1.407,0.234-5.299,0.955-11.154,1.355                      c0.583-0.466,1.259-0.78,1.986-1.081c0.429-0.056,8.959-0.152,18.563-4.112c1.046-0.431,2.271-0.988,3.093-1.86                      C78.341,33.024,77.605,33.385,77.522,34.457z M68.46,23.933c1.595,0.399,3.22,0.599,4.785,1.161                      c1.926,0.692,3.519,1.78,5.256,2.809c0.502,1.063-0.508,2.512-1.56,3.184c-0.851,0.543-1.826,0.851-2.772,1.18                      c-7.104,2.466-9.85,2.533-14.657,3.384c0.085-0.156,0.149-0.313,0.202-0.47c1.54-2.271,4.05-2.19,6.476-2.702                      c0.665-0.013,1.323-0.092,2.006-0.317c1.557-0.508,2.865-1.68,2.128-3.411c-0.576-1.352-1.94-1.689-1.949-3.335                      C68.372,24.889,68.467,24.416,68.46,23.933z M63.006,20.879c1.614,1.277,2.049,3.807,0.614,5.417                      c-1.165,1.307-2.504,0.977-3.98,1.142c0.078-1.375-0.719-2.466-1.745-3.251c-0.547-1.071-0.289-2.351,0.977-3.14                      c-1.056-0.08-2.299,1.142-1.839,2.563C54.419,21.946,59.508,18.111,63.006,20.879z M59.012,27.555                      c-0.116,3.619-3.748,4.944-6.365,4.127c-3.621-1.131-3.296-6.094-0.191-7.538C55.183,22.876,58.625,24.62,59.012,27.555z                      M63.773,10.736c-2.425,1.936-4.484,1.106-5.492,0.982c-0.613-0.299-1.33-0.376-2.12-0.136c-0.152-0.53-0.442-1.047-0.784-1.479                      c1.702-0.194,2.225-0.92,5.839,0.755c0.009,0.004,0.02-0.005,0.014-0.014c-1.173-1.836-4.661-2.857-6.462-1.376                      c-0.168-0.141-0.326-0.256-0.535-0.372C59.486,6.139,61.113,10.125,63.773,10.736z M55.298,2.232                      c0.396,0.838,1.216,1.613,1.448,2.619c0.186,0.808,0.035,1.494-0.073,2.232c-0.645,0.094-1.278,0.29-1.85,0.587                      c0.597-1.291,0.703-2.127,0.613-3.87c0-0.007-0.012-0.01-0.013-0.002c-0.183,1.217-0.894,2.765-1.589,3.722                      c0.256-0.955,0.244-2.142-0.22-3.163C54.029,3.52,54.657,2.913,55.298,2.232z M48.971,1.571c0.82,0.733,1.846,1.124,2.701,1.896                      l1.098,1.657c0.156,0.712,0.37,1.377-0.104,2.473c-0.466-1.324-2.798-4.517-2.664-4.09c0.929,2.954,1.309,3.245,1.633,4.194                      c0.052,0.151,0.086,0.303,0.116,0.456c-0.407-0.469-0.896-0.837-1.437-1.093C49.432,5.254,48.788,3.601,48.971,1.571z                      M43.649,15.877c0.17-1.12-0.08-2.372,0.047-3.495c0.576-5.099,4.121-6.535,7.919-3.508c-0.452,0.145-0.89,0.372-1.292,0.669                      c-0.1,0.074-0.047,0.269,0.093,0.22c1.184-0.423,2.667-0.22,3.718,0.472c1.542,1.015,1.497,3.773,1.902,3.051                      c0.194-0.345,0.257-0.726,0.23-1.114c-0.005-0.079,1.299,0.313,1.412,0.369c0.427,0.213,0.808,0.513,1.114,0.879                      c0.939,1.125,0.795,2.134,0.792,2.721c-0.005,0.725-0.161,1.451-0.519,2.086c-0.865,1.533-3.765,3.624-5.214,4.35                      c-1.531,0.766-3.245,1.266-4.874,1.785c-0.578,0.184-1.106,0.539-1.702,0.616c-3.027,0.395-5.167-1.785-4.76-4.824                      c0.093-0.128,0.112-0.273,0.067-0.404C42.834,18.457,43.44,17.255,43.649,15.877z M42.671,15.602                      c-0.331,2.416-0.678,2.761-0.917,3.952c-0.329,0.207-0.641,0.443-0.99,0.618c-2.035,0.069-2.697,0.092-4.701-0.995                      c0.752-0.235,1.494-0.492,2.258-0.71c0.771-0.22,3.603-0.756,3.479-0.773c-1.798-0.261-3.84,0.045-5.533,0.86                      C37.039,17.551,38.789,14.892,42.671,15.602z M34.97,24.092c0.576-2.126-0.062-3.677-0.582-4.124                      c0.179,0.004,0.358-0.082,0.444-0.18c2.698,0.793,1.082,4.759-0.006,6.709c-1.827-1.76-1.805-3.99-0.906-6.236                      c0.022-0.016,0.042-0.033,0.063-0.05c0.121,0.48,1.184,1.874,0.917,3.861C34.893,24.117,34.957,24.139,34.97,24.092z                      M34.39,17.085c0.083,0.296,0.249,0.573,0.245,0.903c-0.004,0.297-0.15,0.58-0.205,0.865                      C33.878,18.311,33.937,17.649,34.39,17.085z M33.796,10.697c0.605,1.56,4.529,2.837,2.528,6.087                      c-0.182,0.201-0.337,0.42-0.477,0.647C35.68,17.628,35.5,17.816,35.316,18c-0.034-0.456-0.199-0.908-0.47-1.151                      c0.026-0.477-0.096-0.965-0.179-1.435c-0.132-0.749-0.272-1.491-0.508-2.216c-0.037-0.112-0.209-0.095-0.209,0.029                      c0,0.681,0.084,1.348,0.175,2.023c0.064,0.479,0.092,1.005,0.238,1.478c-0.009,0.016-0.015,0.033-0.017,0.05                      c-0.437,0.155-0.783,0.493-0.962,0.913C32.24,15.97,31.753,14.726,33.796,10.697z M32.621,19.643                      c0.185,0.029,0.369,0.056,0.555,0.082c-0.489,0.254-0.98,0.442-1.958,0.396C31.417,20.027,32.527,19.774,32.621,19.643z                      M19.97,20.802c1.503-0.878,2.768-2.176,4.367-2.917c2.859-1.324,5.21-0.182,7.713,0.824c-4.33-0.606-8.954,1.59-7.559,1.245                      c2.057-0.508,4.336-0.807,6.432-0.562c-0.225,0.124-0.599,0.414-0.633,0.659c-0.448,0.096,0.257,0.791,1.304,0.881                      C27.591,23.148,23.725,21.018,19.97,20.802z M24.785,22.78c2.801,0.29,5.711,0.075,7.711-1.255                      c-0.037,0.126-0.067,0.253-0.092,0.382c-1.718,1.114-3.363,1.436-3.332,1.605c0.008,0.063,0.439,0.102,1.136,0.003                      c0.556-0.078,1.284-0.264,2.057-0.598c-1.475,1.083-1.717,1.56,0.123,0.809c0.351,2.163,2.379,4.711,2.958,3.731                      c1.136-1.923,2.353-4.747,1.579-6.831c1.885,0.828,3.951,0.463,4.686,0.149c-0.054,2.143,0.923,4.166,3.2,5.022                      c1.749,0.658,3.297-0.069,4.916-0.631c-0.881,0.731-2.503,1.396-4.097,1.445c-0.329,0.011-0.602,0.003-0.79-0.011                      c-0.19-0.014-0.296-0.023-0.296-0.023s0.093,0.051,0.27,0.129c0.177,0.078,0.442,0.175,0.784,0.252                      c2.067,0.481,3.468-0.615,4.062-0.933c-0.085,0.137-0.165,0.279-0.236,0.425c-0.341,0.177-0.822,0.445-1.661,1.054                      c0.315,0.106,0.853,0.101,1.346-0.106c-0.493,2.498,1.379,4.771,3.822,5.278c2.795,0.58,6.233-1.113,6.565-4.328                      c0.957,0.488,3.693-0.242,4.836-1.678c1.258-1.579,1.22-3.966,0.051-5.585c4.355,1.901,2.502,3.496,3.602,5.921                      c0.201,0.443,0.558,0.836,0.738,1.292c0.525,1.347,0.358,2.798-1.297,3.36c-0.345,0.118-0.697,0.183-1.053,0.218                      c-0.244,0.011-0.496,0.022-0.753,0.036c-1.746-0.009-3.552-0.505-5.174,0.42c-0.636,0.362-1.006,0.845-1.399,1.442                      c-0.128,0.2-0.089,0.49-0.192,0.686c-1.019,1.945-1.062,1.51-2.401,1.634c-1.595,0.145-2.793,0.899-3.569,2.32                      c-2.259,4.124,1.847,8.724-1.463,13.154c-0.695,0.273-0.951-0.52-1.04-1.181c-0.376-2.753,2.146-5.776,1.23-10.048                      c0.057-0.209,0.007-0.443-0.15-0.58c-0.965-3.343-3.805-5.359-7.476-5.101c-2.836,0.196-5.313,0.989-7.876-0.771                      c-1.838-1.267-3.053-3.185-5.126-4.132c-3.779-1.728-9.936-0.407-10.745-3.014C19.198,23.369,24.162,23.134,24.785,22.78z                      M50.922,42.468c-9.693,0.098-18.913-0.938-28.514-2.729c-2.221-0.413-6.404-0.58-7.338-3.134                      c-0.009-0.021-0.017-0.038-0.03-0.056c0.135-0.151,0.617-0.531,0.661-0.633c3.331,1.462,17.574,5.834,35.147,4.85                      C50.936,41.324,50.955,41.893,50.922,42.468z M46.31,35.828c-0.004-0.001-0.009-0.001-0.013-0.001c0-0.001,0-0.001,0-0.001                      C46.301,35.826,46.305,35.827,46.31,35.828z M19.286,24.582c-0.955,1.714-0.006,4.69,3.954,5.033                      c3.582,0.316,6.362-0.204,9.223,2.563c1.025,0.992,1.978,1.988,3.07,2.733c-4.853-0.731-7.951-1.556-13.961-2.574                      c-2.385-0.404-5.96-0.864-7.651-2.812C11.72,26.991,16.569,25.426,19.286,24.582z M14.455,33.773                      c-1.103-1.183-1.394-2.51-1.521-3.727c1.053,1.295,3.227,1.994,4.591,2.421c2.552,0.799,13.606,3.215,19.916,3.995                      c3.16,0.391,6.687,0.884,9.906,0.491c0.706,0.523,1.411,0.705,2.25,1.367c-4.881,0.078-8.12-0.182-9.855-0.3                      c1.397,0.242,5.062,0.944,10.518,0.947c0.117,0.229,0.222,0.461,0.306,0.696c-9.166,0.417-18.33-0.269-27.513-2.527                      c-2.674-0.657-5.293-1.69-7.971-2.333C15.063,34.343,14.753,34.093,14.455,33.773z M14.652,37.159                      c0.76,2.321,2.89,3.22,16.118,5.027c6.639,0.908,13.347,1.386,20.046,1.305c-0.008,0.059-0.021,0.119-0.03,0.178                      c-6.856,0.183-10.922-0.13-13.571-0.307c-0.727-0.046-1.352-0.101-1.863-0.151c-1.023-0.09-1.588-0.14-1.588-0.14                      s0.561,0.088,1.575,0.248c0.507,0.082,1.129,0.176,1.854,0.262c4.209,0.519,7.984,0.842,13.477,0.765                      c-0.049,0.25-0.104,0.502-0.161,0.752c-6.119-0.29-12.255-0.592-18.352-1.185c-5.92-0.575-11.049-1.173-14.366-2.738                      C16.472,40.558,13.995,38.835,14.652,37.159z M14.389,39.985c2.809,3.916,12.85,4.902,23.629,5.613                      c4.059,0.269,8.136,0.525,12.208,0.622c-0.067,0.257-0.22,0.842-0.286,1.092c-2.011,0.081-2.864,0.082-4.8,0.106                      c1.06,0.236,2.803,0.464,4.642,0.514c-0.092,0.377-0.178,0.778-0.229,1.182c-2.74-0.67-6.043-0.244-8.847-0.44                      c-3.314-0.231-6.618-0.593-9.912-1.029c-3.521-0.466-7.028-1.038-10.532-1.615c-3.328-0.548-7.135-0.787-7.958-3.527                      C12.277,40.918,12.804,39.838,14.389,39.985z M79.036,63.131c-34.677,13.935-92.843-1.94-71.603-19.578                      c1.277-1.094,2.622-1.978,4.086-2.667c-0.264,0.577-0.365,1.211-0.238,1.853c-0.097,0.5-0.092,1.034-0.004,1.576                      c-4.931,4.093-4.826,9.32,3.609,13.837c16.454,8.34,44.074,5.551,44.014,5.008c0,0-10.756,0.795-21.335-0.234                      c-19.532-1.982-34.767-9.612-25.984-17.449c0.231,0.632,0.556,1.243,0.943,1.784c0.004,0.29,0.026,0.573,0.074,0.845                      c-1.264,7.549,9.867,9.497,15.281,10.4c14.847,2.476,55.301,4.89,55.024-10.056c-0.001-0.071-0.026-0.123-0.059-0.163                      c0.073-0.764-0.08-1.531-0.513-2.215c0.261-0.383,0.468-0.792,0.603-1.233c1.256,0.984,2.213,2.053,2.725,3.162                      c1.52,3.154-1.11,6.359-0.165,5.051c0.145-0.205,0.356-0.518,0.558-0.972c0.203-0.45,0.4-1.046,0.453-1.78                      c0.026-0.73-0.068-1.597-0.454-2.476c-0.539-1.279-1.6-2.493-2.984-3.594c0.105-0.713,0.051-2.521-0.668-2.584                      c-0.091-0.498-0.356-0.931-0.769-1.194c0.088-0.079,0.171-0.164,0.253-0.25c0.109,0.08,0.282,0.166,0.552,0.261                      C96.67,48.037,93.032,57.55,79.036,63.131z"
       id="path2275"
       style="fill:#66a541;fill-opacity:1" />
    <path
       d="M59.716,29.129c-0.171,2.996-3.917,3.932-5.636,4.596C58.648,33.786,60.337,30.959,59.716,29.129z"
       id="path2277"
       style="fill:#66a541;fill-opacity:1" />
    <path
       d="M61.939,29.116c1.718-0.022,3.459-1.434,3.524-3.552c-0.994,1.918-2.734,3.111-4.202,3.39                      c-0.153,0.035-0.239,0.055-0.239,0.055s0.086,0.019,0.24,0.054C61.418,29.098,61.649,29.122,61.939,29.116z"
       id="path2279"
       style="fill:#66a541;fill-opacity:1" />
    <path
       d="M55.582,26.439c-0.007,0.008,0.128,0.005,0.264,0.112c0.22,0.175-0.063,0.591-0.343,0.721                      c-0.199,0.097-0.605,0.012-0.821-0.033c-0.982-0.2-0.959,0.13-1.386,0.16c-0.032,0.001-0.007-0.002-0.016-0.003l0.001-0.002                      c-0.074-0.32-0.064-0.556-0.342-0.771c-0.033-0.026-0.324-0.198-0.312-0.229c0.019-0.123,0.56-0.198,0.681-0.237                      c0.462-0.128,0.507-0.468,0.72-0.84c0.104-0.206,0.325-0.294,0.456-0.282c0.143,0.016,0.182,0.116,0.184,0.108                      c-0.006,0.009-0.003-0.107-0.164-0.182c-0.667-0.267-0.861,0.738-1.312,0.741c-0.426,0.075-0.682-0.063-1.039,0.316                      c-0.139,0.15-0.209,0.371-0.152,0.58c0.094,0.311,0.522,0.57,0.523,0.574c0.118,0.206-0.011,0.391,0.206,0.659                      c0.117,0.167,0.379,0.29,0.65,0.245c0.468-0.067,0.41-0.335,1.23-0.287c1.12,0.077,1.506-0.455,1.501-0.96                      C56.113,26.345,55.582,26.439,55.582,26.439z"
       id="path2281"
       style="fill:#66a541;fill-opacity:1" />
    <path
       d="M60.3,23.869c0.23,0.011,0.544-0.054,0.762-0.184c0.591-0.337,0.367-1.017,0.175-1.75                      c-0.115,0.704,0.11,1.521-0.882,1.35c-1.007-0.216-1.49-0.584-1.49-0.584c-0.02-0.042-0.055-0.098-0.055-0.098                      c0.034-0.076,0.392-0.185,0.472-0.213c0.208-0.078,0.406-0.152,0.523-0.341c0.097-0.201,0.19-0.755,0.308-0.877                      c0.293-0.318,0.511-0.033,0.511-0.033s-0.039-0.257-0.384-0.227c-0.555,0.044-0.477,0.491-0.811,0.876                      c-0.025,0.013-0.707,0.152-0.856,0.214C57.789,22.273,57.923,23.693,60.3,23.869z"
       id="path2283"
       style="fill:#66a541;fill-opacity:1" />
    <path
       d="M23.357,28.206c1.598,0.272,3.289-0.338,4.691,0.18c-1.126-0.917-3.257-0.639-4.571-0.865                      c-2.174-0.378-2.58-2.013-1.806-2.95C20.389,25.391,20.829,27.768,23.357,28.206z"
       id="path2285"
       style="fill:#66a541;fill-opacity:1" />
    <path
       d="M38.404,34.034c1.665,0.307,3.502-0.181,5.003-0.277c1.37-0.093,2.529,0.064,3.627,0.83                      c-0.936-1.043-2.251-1.392-3.64-1.417c-0.792-0.016-1.64,0.088-2.507,0.187c-0.865,0.098-1.68,0.167-2.401,0.096                      c-1.321-0.128-2.451-0.634-3.161-1.762C35.787,33.027,37.011,33.778,38.404,34.034z"
       id="path2287"
       style="fill:#66a541;fill-opacity:1" />
    <path
       d="M58.014,34.232c0.901-0.916,1.604-1.781,2.635-2.336c0.816-0.441,1.677-0.612,2.317-0.638                      c0.32-0.014,0.585,0.005,0.77,0.021c0.185,0.022,0.289,0.034,0.289,0.034s-0.089-0.053-0.259-0.139                      c-0.172-0.079-0.429-0.187-0.768-0.263C60.694,30.382,58.872,31.935,58.014,34.232z"
       id="path2289"
       style="fill:#66a541;fill-opacity:1" />
    <path
       d="M67.673,28.441c0.174,0.107,0.324,0.172,0.433,0.203c0.106,0.03,0.167,0.048,0.167,0.048                      s-0.038-0.05-0.104-0.137c-0.068-0.082-0.156-0.211-0.253-0.363c-0.198-0.308-0.401-0.737-0.567-1.22                      c-0.316-0.939-0.314-1.464-0.317-1.926c-0.508,0.685-0.578,1.45-0.342,2.15C66.897,27.803,67.325,28.234,67.673,28.441z"
       id="path2291"
       style="fill:#66a541;fill-opacity:1" />
    <path
       d="M52.072,46.061c0.056,1.807-0.366,3.179-1.139,4.512C52.611,49.661,53.09,47.622,52.072,46.061z"
       id="path2293"
       style="fill:#66a541;fill-opacity:1" />
    <path
       d="M49.02,23.208c1.945-0.943,3.804-1.815,5.786-2.716C52.68,20.401,50.212,21.642,49.02,23.208z"
       id="path2295"
       style="fill:#66a541;fill-opacity:1" />
    <path
       d="M58.088,13.843c0.753,1.803,0.323,3.489-1.18,4.716C59.156,18.283,59.85,15.082,58.088,13.843z"
       id="path2297"
       style="fill:#66a541;fill-opacity:1" />
    <path
       d="M37.561,25.368c0.552-0.746,0.907-1.788,0.805-2.973c-0.004-0.051-0.01-0.111-0.012-0.109                      c-0.03-0.112-0.012-0.053-0.043-0.113c0,0,1.286,0.089,2.06-0.239c-1.118-0.032-2.046-0.361-2.843-0.62                      c0.082,0.519,0.451,2.004-0.271,3.887c-0.109,0.297-0.227,0.529-0.308,0.694c-0.086,0.161-0.135,0.251-0.135,0.251                      s0.079-0.067,0.221-0.185C37.168,25.833,37.364,25.643,37.561,25.368z"
       id="path2299"
       style="fill:#66a541;fill-opacity:1" />
    <path
       d="M46.513,10.754c-0.029,0.513-0.586,1.153-1.116,1.239C46.086,13.17,47.592,11.244,46.513,10.754z"
       id="path2301"
       style="fill:#66a541;fill-opacity:1" />
    <path
       d="M49.219,13.822c0.008,0.09,0.069,0.224,0.187,0.338c0.753,0.776,1.964-0.588,1.137-1.134                      C50.425,13.531,49.728,13.958,49.219,13.822z"
       id="path2303"
       style="fill:#66a541;fill-opacity:1" />
    <path
       d="M53.654,16.809c0.205,0.286,0.832,0.316,1.136-0.152c0.285-0.462,0.012-1.025-0.349-1.092                      C54.471,15.982,54.067,16.65,53.654,16.809z"
       id="path2305"
       style="fill:#66a541;fill-opacity:1" />
    <path
       d="M46.116,16.77c0.003,0.096,0.093,0.235,0.275,0.3c0.838,0.306,1.43-1.009,0.484-1.632                      C46.758,15.863,46.699,16.936,46.116,16.77z"
       id="path2307"
       style="fill:#66a541;fill-opacity:1" />
    <path
       d="M50.459,18.727c0.376-0.371,0.228-0.961-0.104-1.083c-0.064,0.373-0.597,0.886-0.974,0.936                      C49.484,18.901,50.063,19.096,50.459,18.727z"
       id="path2309"
       style="fill:#66a541;fill-opacity:1" />
    <path
       d="M49.741,10.073C49.689,9.88,49.58,9.811,49.58,9.811c-0.159,0.24-0.299,0.256-0.496,0.375                      c-0.193,0.126-0.268,0.245-0.553,0.285C48.611,11.176,49.987,10.896,49.741,10.073z"
       id="path2311"
       style="fill:#66a541;fill-opacity:1" />
    <path
       d="M54.152,13.008c0.428-0.302,0.353-0.912,0.03-1.047c-0.092,0.323-0.647,0.726-1.015,0.688                      C53.174,12.999,53.712,13.294,54.152,13.008z"
       id="path2313"
       style="fill:#66a541;fill-opacity:1" />
    <path
       d="M46.336,20.631c0.147,0.29,0.74,0.39,1.091,0.009c0.344-0.388,0.186-0.968-0.117-1.085                      C47.226,19.903,46.686,20.508,46.336,20.631z"
       id="path2315"
       style="fill:#66a541;fill-opacity:1" />
    <path
       d="M43.903,20.767c-0.042,0.334-0.161,0.412-0.248,0.68c-0.093,0.266-0.045,0.401-0.212,0.692                      c0,0,0.027,0.011,0.082,0.024C44.351,22.369,44.688,20.96,43.903,20.767z"
       id="path2317"
       style="fill:#66a541;fill-opacity:1" />
    <path
       d="M46.07,23.859c0.231,0.692,1.664,0.495,1.584-0.486c-0.014-0.235-0.11-0.348-0.11-0.348                      C47.303,23.364,46.535,23.824,46.07,23.859z"
       id="path2319"
       style="fill:#66a541;fill-opacity:1" />
    <path
       d="M55.801,18.967c-1.82,0.203-4.393,1.112-5.744,2.242C51.996,20.81,54.134,20.118,55.801,18.967z"
       id="path2321"
       style="fill:#66a541;fill-opacity:1" />
    <path
       d="M31.025,49.973c-5.846-0.599-9.163-1.061-12.359-1.485c2.875,0.768,7.61,1.697,12.289,2.177                      c3.434,0.349,6.56,0.443,8.819,0.436c2.26-0.005,3.656-0.085,3.656-0.085s-1.394-0.101-3.643-0.262                      C37.539,50.587,34.44,50.321,31.025,49.973z"
       id="path2323"
       style="fill:#66a541;fill-opacity:1" />
    <path
       d="M38.183,58.42c11.619,1.353,22.788,1.052,36.005-1.998C59.192,58.695,48.778,58.84,38.183,58.42z"
       id="path2325"
       style="fill:#66a541;fill-opacity:1" />
    <path
       d="M73.664,52.119c-2.311,0.563-5.519,1.252-9.09,1.844c-5.386,0.887-9.133,1.199-13.043,1.476                      c4.277,0.146,8.346,0.002,13.157-0.79c3.602-0.598,6.798-1.463,9.07-2.195c1.137-0.366,2.048-0.686,2.672-0.923                      c0.623-0.236,0.969-0.367,0.969-0.367s-0.357,0.093-1.002,0.264C75.755,51.602,74.82,51.839,73.664,52.119z"
       id="path2327"
       style="fill:#66a541;fill-opacity:1" />
    <path
       d="M74.848,58.442c-10.598,1.928-17.1,2.514-25.448,2.919C58.338,61.891,66.097,61.03,74.848,58.442z"
       id="path2329"
       style="fill:#66a541;fill-opacity:1" />
  </g>
</svg>
