<?xml version="1.0" encoding="UTF-8" standalone="no"?>
<svg
   xmlns:dc="http://purl.org/dc/elements/1.1/"
   xmlns:cc="http://creativecommons.org/ns#"
   xmlns:rdf="http://www.w3.org/1999/02/22-rdf-syntax-ns#"
   xmlns:svg="http://www.w3.org/2000/svg"
   xmlns="http://www.w3.org/2000/svg"
   xmlns:sodipodi="http://sodipodi.sourceforge.net/DTD/sodipodi-0.dtd"
   xmlns:inkscape="http://www.inkscape.org/namespaces/inkscape"
   height="48"
   viewBox="0 0 48 48"
   width="48"
   version="1.1"
   id="svg849"
   sodipodi:docname="i_dish1.svg"
   inkscape:version="0.92.4 (5da689c313, 2019-01-14)">
  <metadata
     id="metadata855">
    <rdf:RDF>
      <cc:Work
         rdf:about="">
        <dc:format>image/svg+xml</dc:format>
        <dc:type
           rdf:resource="http://purl.org/dc/dcmitype/StillImage" />
        <dc:title></dc:title>
      </cc:Work>
    </rdf:RDF>
  </metadata>
  <defs
     id="defs853" />
  <sodipodi:namedview
     pagecolor="#ffffff"
     bordercolor="#666666"
     borderopacity="1"
     objecttolerance="10"
     gridtolerance="10"
     guidetolerance="10"
     inkscape:pageopacity="0"
     inkscape:pageshadow="2"
     inkscape:window-width="1920"
     inkscape:window-height="1017"
     id="namedview851"
     showgrid="false"
     inkscape:zoom="4.9166667"
     inkscape:cx="24"
     inkscape:cy="24"
     inkscape:window-x="-8"
     inkscape:window-y="-8"
     inkscape:window-maximized="1"
     inkscape:current-layer="svg849" />
  <path
     d="M0 0h48v48h-48z"
     fill="none"
     id="path845" />
  <path
     d="M16.2 26.69l5.66-5.66-14.03-14.03c-3.12 3.12-3.12 8.19 0 11.31l8.37 8.38zm13.57-3.63c3.05 1.43 7.36.42 10.54-2.76 3.83-3.83 4.56-9.3 1.63-12.23-2.94-2.93-8.42-2.2-12.24 1.63-3.18 3.18-4.18 7.49-2.76 10.54-4.45 4.44-19.53 19.52-19.53 19.52l2.83 2.83 13.76-13.76 13.76 13.76 2.83-2.83-13.76-13.76 2.94-2.94z"
     id="path847"
     style="fill:#66a55f;fill-opacity:1" />
</svg>
