<?xml version="1.0" encoding="UTF-8" standalone="no"?>
<svg
   xmlns:dc="http://purl.org/dc/elements/1.1/"
   xmlns:cc="http://creativecommons.org/ns#"
   xmlns:rdf="http://www.w3.org/1999/02/22-rdf-syntax-ns#"
   xmlns:svg="http://www.w3.org/2000/svg"
   xmlns="http://www.w3.org/2000/svg"
   xmlns:sodipodi="http://sodipodi.sourceforge.net/DTD/sodipodi-0.dtd"
   xmlns:inkscape="http://www.inkscape.org/namespaces/inkscape"
   x="0px"
   y="0px"
   width="120px"
   height="110px"
   viewBox="0 0 95 70"
   version="1.1"
   id="svg1538"
   sodipodi:docname="i_mainDish.svg"
   inkscape:version="0.92.4 (5da689c313, 2019-01-14)">
  <metadata
     id="metadata1544">
    <rdf:RDF>
      <cc:Work
         rdf:about="">
        <dc:format>image/svg+xml</dc:format>
        <dc:type
           rdf:resource="http://purl.org/dc/dcmitype/StillImage" />
        <dc:title></dc:title>
      </cc:Work>
    </rdf:RDF>
  </metadata>
  <defs
     id="defs1542" />
  <sodipodi:namedview
     pagecolor="#ffffff"
     bordercolor="#666666"
     borderopacity="1"
     objecttolerance="10"
     gridtolerance="10"
     guidetolerance="10"
     inkscape:pageopacity="0"
     inkscape:pageshadow="2"
     inkscape:window-width="1920"
     inkscape:window-height="1017"
     id="namedview1540"
     showgrid="false"
     inkscape:zoom="7.7090909"
     inkscape:cx="60"
     inkscape:cy="55"
     inkscape:window-x="-8"
     inkscape:window-y="-8"
     inkscape:window-maximized="1"
     inkscape:current-layer="svg1538" />
  <g
     id="g1536"
     style="fill:#66a55c;fill-opacity:1">
    <path
       d="M94.313,36.836c-0.012-0.444-0.108-1.1-0.304-1.932c-0.12-0.41-0.225-0.879-0.435-1.359                        c-0.1-0.241-0.185-0.503-0.312-0.757c-0.128-0.253-0.261-0.517-0.399-0.791c-0.594-1.07-1.402-2.22-2.459-3.356                        c-2.118-2.271-5.197-4.448-9-6.296c-3.805-1.852-8.332-3.395-13.382-4.518c-4.569-1.006-9.564-1.706-14.854-2.002                        c-1.01-0.64-1.806-1.591-2.962-2.068c-6.376-2.631-12.979,2.546-19.498,1.195c-0.033-0.007-0.056,0.006-0.073,0.025l-0.209-0.064                        l-0.002,0.005c-0.088,0.362-0.195,0.698-0.307,1.006c-0.347,0.403-0.653,0.884-0.906,1.413c-0.111,0.021-0.221,0.043-0.332,0.064                        c0.895-1.488,1.18-3.217,2.219-4.732c0.001-0.001,0-0.002,0.001-0.003c0.021-0.002,0.043-0.004,0.064-0.006                        c0.036-0.004,0.053-0.063,0.009-0.069c-0.025-0.004-0.052-0.007-0.078-0.011c-0.026-0.035-0.076-0.056-0.119-0.034                        c-0.008,0.004-0.015,0.01-0.023,0.014c-4.338-0.611-7.424-0.417-9.389,3.328c-0.361-1.543-1.537-2.93-3.137-3.548                        c-0.07-0.027-0.169,0.003-0.218,0.058c-1.277,1.416-1.479,3.704-0.426,5.188c-1.54-0.679-3.282-0.959-4.829-0.593                        c-3.396,0.805-6.246,4.717-6.332,5.061c-0.001,0.002-0.002,0.004-0.003,0.005c0,0.001,0,0.002-0.001,0.003                        c-0.026,0.047-0.012,0.116,0.053,0.126c0.044,0.038,0.107,0.053,0.159,0.026c1.329,0.217,3.239,0.677,5.212,0.932                        c-1.483,0.793-2.331,1.343-3.256,1.98c-2.372,0.794-5.36,2.45-5.365,4.946c-5.663,7.462-2.032,15.061,5.764,20.373                        c16.291,11.182,51.458,13.113,72.36,2.514c4.471-2.26,9.02-5.466,11.392-9.898c0.135-0.277,0.265-0.545,0.39-0.801                        c0.124-0.257,0.205-0.523,0.302-0.766c0.203-0.485,0.303-0.957,0.417-1.371c0.061-0.203,0.096-0.409,0.123-0.605                        c0.03-0.194,0.058-0.375,0.083-0.543c0.064-0.346,0.057-0.588,0.07-0.798c0.019-0.415,0.029-0.629,0.029-0.629l0.001-0.039                        C94.354,37.509,94.34,37.279,94.313,36.836z M30.3,16.896c0.307-0.422,0.633-0.988,0.887-1.658                        c1.343,0.316,2.674,0.378,4.005,0.283c-0.306,0.11-0.589,0.216-0.846,0.317c-1.018,0.399-1.629,0.693-1.629,0.693                        s0.662-0.15,1.723-0.39c1.06-0.249,2.519-0.593,4.127-0.972c1.604-0.397,3.058-0.757,4.115-1.019                        c0.557-0.143,0.999-0.257,1.295-0.333c2.278-0.354,4.58-0.348,6.572,0.782c0.616,0.35,1.093,0.832,1.602,1.276                        c-0.414-0.157-0.84-0.328-1.277-0.507c-0.86-0.344-1.702-0.646-2.492-0.852c-0.79-0.206-1.525-0.318-2.145-0.331                        c-0.621-0.015-1.119,0.045-1.454,0.119c-0.336,0.072-0.515,0.131-0.515,0.131s0.188-0.02,0.526-0.032                        c0.337-0.015,0.825,0.006,1.413,0.098c1.186,0.169,2.724,0.756,4.433,1.456c0.861,0.344,1.705,0.642,2.497,0.841                        c0.517,0.13,1.006,0.214,1.459,0.261c0.654,0.108,1.328,0.134,1.98,0.221c3.553,0.476,6.587,0.597,9.628,2.828                        c1.812,1.33,2.239,4.045,4.11,5.329c0.871,0.598,1.871,0.627,2.832,0.991c1.882,0.711,1.791,1.955,2.969,3.248                        c0.671,0.737,1.48,0.931,2.387,1.233c2.276,0.758,3.587,1.752,3.646,4.295c0.04,1.678,0.773,3.109,2.05,4.08                        c-0.82,0.53-3.055,3.504-2.666,7.141c-0.272,0.74-2.321-0.708-2.601-0.997c-0.717-0.74-1.099-1.682-1.408-2.643                        c-0.4-1.245-0.547-2.557-0.931-3.807c-0.111-0.359-0.24-0.694-0.38-1.018c0.071-0.088,0.102-0.21,0.04-0.339                        c-0.196-0.407-0.449-0.706-0.741-0.933c-0.583-0.842-1.342-1.534-2.358-2.082c-0.964-0.519-2.028-0.841-2.969-1.404                        c-1.429-0.856-1.966-1.896-2.554-3.379c-0.414-1.045-0.756-2.086-1.432-2.874c-0.515-1.167-1.337-2.202-2.437-2.898                        c-2.307-1.462-5.154-1.276-7.691-2.039c-0.977-0.294-2.014-0.692-2.73-1.458c-0.444-0.476-0.63-1.126-1.037-1.623                        c-0.613-0.749-1.555-1.127-2.47-1.354c-2.675-0.664-5.612,0.059-8.269,0.498c-2.797,0.463-5.625,1.097-8.097,2.542                        c-1.232,0.72-2.281,1.641-3.13,2.699C28.528,21.749,29.344,19.037,30.3,16.896z M67.85,20.876                        c1.004,0.459,2.095,0.843,2.758,1.788c0.556,0.792,0.708,1.532,1.491,2.15c0.88,0.695,2.032,0.994,3.111,1.188                        c1.58,0.284,3.222,0.32,4.591,1.261c1.111,0.763,1.72,1.924,2.495,2.988c0.432,0.592,1.151,1.068,1.539,1.635                        c0.51,0.746-0.244,2.397-0.752,3.544c-0.038-0.351-0.061-0.718-0.079-1.101c-0.042-0.902-0.255-1.467-0.852-2.197                        c-0.618-0.757-1.43-1.322-2.333-1.685c-0.693-0.278-1.452-0.347-2.126-0.675c-1.021-0.496-1.375-1.301-1.93-2.198                        c-1.39-2.245-4.006-1.604-5.725-3.354C69.109,23.276,68.631,21.94,67.85,20.876z M8.051,37.139c0.017-0.13,0.032-0.26,0.046-0.389                        l0.229-0.083c0.799,2.368,5.472,5.208,7.572,6.447c1.686,0.995,3.777,2.531,5.859,2.205c0.254-0.04,0.482-0.115,0.697-0.212                        c-0.968,2.352,0.235,4.376,0.271,3.594c0.188-4.083,1.716-4.711,3.238-5.755c0.138-0.047,0.279-0.088,0.421-0.128                        c-1.117,0.665-1.592,1.707-1.982,3.078c-0.024,0.085,0.108,0.147,0.147,0.062c0.589-1.264,1.407-2.349,2.818-2.719                        c3.891-1.019,5.636-0.538,7.556-1.079c0.031,0.017,0.065,0.028,0.101,0.035c-0.079,0.205-0.137,0.426-0.187,0.648                        c-2.668-0.407-4.919,0.598-4.841,0.792c0.024,0.07,0.563-0.074,1.443-0.168c0.841-0.093,2.012-0.102,3.257,0.181                        c-0.014,0.109-0.027,0.209-0.039,0.31c-3.533,0.243-3.897,0.552-0.064,0.761c-0.014,0.273-0.027,0.619-0.031,0.985                        c-0.82-0.381-1.798-0.278-2.514,0.24c-0.277,0.198-0.407,0.368-0.407,0.368s0.212-0.022,0.528-0.055                        c1.507-0.135,2.39-0.221,2.39-0.221c0.002,0.908,0.066,1.815,0.3,1.86c-5.14-0.979-9.878,3.98-17.076,1.522                        c-3.504-1.197-7.456-3.549-9.441-6.8c-1.061-1.738-0.554-3.578-0.305-5.391l0.052-0.058C8.084,37.163,8.06,37.146,8.051,37.139z                        M35.849,48.153c0.08-0.152,0.114-0.343,0.127-0.548c0.046,0.048,0.092,0.096,0.143,0.148c0.461,0.604,0.964,1.076,1.431,1.411                        c0.261,0.187,0.506,0.336,0.727,0.454c8.436,6.247,16.724,3.19,21.262,1.947c3.613-1.12,8.054-0.806,9.983-4.098                        c0.137-0.209,0.209-0.319,0.209-0.319s-0.08,0.104-0.233,0.302c-0.963,1.4-2.561,2.154-4.235,2.518                        c-1.625,0.37-3.682,0.441-5.868,1.049c-5.109,1.249-8.764,2.507-14.196,1.264c-2.08-0.471-4.079-1.267-5.8-2.269                        c0,0-3.11-1.686-3.734-5.072c0.289-2.304,0.726-3.365,0.257-3.755c-0.007-0.134-0.027-0.274-0.073-0.424l0.029-0.009                        c-0.083-0.344-0.173-0.432-0.099-0.894c0.037-0.253,0.102-0.426,0.042-0.481c-0.099-0.098-0.412,0.235-0.493,0.35                        c-0.015-0.023-0.033-0.047-0.049-0.07l0.014-0.003c-0.039-0.344-0.106-0.819,0.319-1.346c0.239-0.315,0.485-0.445,0.459-0.526                        c-0.008-0.054-0.333-0.089-0.764,0.193c-0.194,0.127-0.396,0.326-0.558,0.595c-0.163-0.367-0.263-0.534-0.383-0.711                        c1.35-1.798,4.739-1.333,6.988-1.078c1.179,0.134,2.319,0.23,3.364,0.218c1.044-0.014,1.99-0.129,2.755-0.343                        c0.766-0.21,1.351-0.481,1.725-0.711c0.194-0.102,0.327-0.213,0.423-0.274c0.094-0.065,0.144-0.099,0.144-0.099                        s-0.055,0.026-0.159,0.075c-0.106,0.044-0.251,0.132-0.455,0.205c-0.396,0.17-0.996,0.355-1.749,0.476                        c-0.752,0.125-1.664,0.153-2.674,0.105c-1.011-0.05-2.121-0.184-3.299-0.319c-2.494-0.283-5.349-0.354-7.477,0.962                        c-0.053,0.002-0.113,0.007-0.177,0.016c-0.208-0.232-0.437-0.447-0.686-0.622c3.248-1.689,6.691-1.082,10.319-0.772                        c3.728,0.32,7.085-0.879,10.685-1.673c3.516-0.775,7.593-1.433,11.066-0.087c1.754,0.68,3.771,1.873,5.299,2.984                        c1.907,1.388,3.347,3.742,3.336,6.144c-0.01,2.075-1.093,3.503-2.693,4.671c-1.83,1.336-3.003,2.311-4.89,2.787l-0.016-0.045                        c-0.93,0.333-1.989,0.368-3.344,0.666c-5.21,1.144-11.519,3.999-17.321,2.637c-4.059-0.953-7.383-3.228-11.125-4.891                        C34.98,48.814,35.587,48.65,35.849,48.153z M30.785,31.846c-0.109,1.308,0.373,2.821,1.491,3.882                        c-2.504-1.864-3.407-5.211-1.897-8.334c0.246-0.503,0.418-0.765,0.383-0.792c-0.021-0.017-0.256,0.201-0.579,0.684                        c-0.319,0.482-0.717,1.248-0.93,2.29c-0.21,1.019-0.219,2.33,0.275,3.665c-0.273-0.386-0.557-0.769-0.856-1.146                        c-0.057-1.487,0.105-2.937,0.49-4.297c0.076-0.081,0.136-0.152,0.08-0.274c0.794-2.574,2.421-4.796,4.998-6.253                        c2.025-1.144,4.277-1.758,6.543-2.211c2.44-0.487,5.094-1.111,7.587-0.907c1.741,0.142,2.815,0.848,3.87,2.239                        c0.378,0.499,0.724,0.936,1.242,1.306c1.349,0.964,3.038,1.298,4.64,1.575c2.44,0.421,5.056,0.804,6.644,2.806                        c-0.004,0.024,0.001,0.05,0.028,0.073c0.044,0.039,0.082,0.081,0.125,0.12c0.105,0.147,0.206,0.301,0.301,0.465                        c1.279,2.203,0.806,4.354-0.412,6.258c-0.511-0.169-1.04-0.304-1.603-0.397c-2.966-0.489-6.028-0.06-8.941,0.562                        c-2.186,0.467-4.33,1.137-6.522,1.567c-2.336,0.458-4.575,0.157-6.913-0.07c-2.413-0.234-4.942-0.217-7.134,0.749                        c-0.519-0.312-0.983-0.556-1.308-0.69c-1.79-2.015-0.974-4.671-0.974-4.671C31.383,30.015,30.888,30.621,30.785,31.846z                        M66.989,33.305c1.215,0.625,2.187,1.649,3.383,2.397c0.114,0.071,0.242,0.132,0.374,0.19c-0.057,0.003-0.113,0.007-0.169,0.01                        c-0.05,0.003-0.095,0.023-0.132,0.052c-0.904-0.581-1.885-1.054-2.799-1.609c-0.214-0.13-0.426-0.244-0.64-0.362                        C66.989,33.75,66.983,33.524,66.989,33.305z M71.882,37.078c-0.051-0.049-0.102-0.097-0.154-0.144                        c0.064,0.015,0.127,0.03,0.191,0.043C71.903,37.01,71.894,37.045,71.882,37.078z M70.956,35.31                        c-1.472-0.774-2.501-1.962-3.938-2.497c0.045-0.459,0.131-0.913,0.249-1.404c0.019-0.08,0.042-0.16,0.066-0.242                        c0.225,0.503,0.494,0.985,0.855,1.42c1.368,1.653,3.557,1.968,5.274,3.106c0.151,0.1,0.291,0.215,0.426,0.336                        C72.912,35.831,71.843,35.777,70.956,35.31z M29.784,24.065c-0.313,0.465-0.589,0.951-0.828,1.455                        c-0.633-0.857-1.404-0.847-2.822-3.109c0.859-0.186,1.633-0.443,2.352-0.907C28.621,22.529,29.03,23.448,29.784,24.065z                        M26.546,28.973c0.49-0.091,0.928-0.325,1.378-0.53c0.044-0.02,0.09-0.039,0.136-0.058c-0.084,0.488-0.139,0.984-0.157,1.485                        c-0.031-0.006-0.062-0.016-0.092-0.015c-0.286,0.005-0.568-0.036-0.841-0.127c-0.187-0.062-0.398-0.115-0.592-0.188                        c-0.397-0.395-0.804-0.783-1.222-1.16c0.445-0.064,2.951-1.281,3.254-1.441c-0.081,0.258-0.153,0.519-0.215,0.784                        c-0.149,0.083-0.294,0.169-0.435,0.24c-0.466,0.235-0.948,0.442-1.346,0.784C26.303,28.843,26.426,28.995,26.546,28.973z                        M26.743,26.848c-0.667,0.319-1.551,0.566-2.021,1.154c-0.24-0.209-0.482-0.415-0.727-0.617c0.49-0.172,3.396-1.496,3.876-1.789                        c0.201,0.184,0.419,0.34,0.657,0.445C27.913,26.248,27.321,26.572,26.743,26.848z M13.969,24.191                        c-0.559,0.035-1.117,0.084-1.674,0.152c0.605-0.343,1.217-0.674,1.837-0.987c-0.131-0.015-0.261-0.034-0.39-0.054                        c2.185,0.11,4.255-0.2,5.493-1.548c-0.362,2.705,2.401,3.344,3.674,4.7c0.102,0.109,0.255,0.061,0.333-0.043                        c0.236-0.313,0.469-0.638,0.683-0.973c0.325-0.079,1.035-0.367,1.914-0.778c0.206-0.032,0.857-0.12,1.012-0.239                        c0.183,0.231,0.362,0.46,0.567,0.7c-0.358,0.137-3.247,1.526-3.849,1.918c-0.584-0.466-4.561-3.416-4.701-2.993                        C17.302,23.674,15.432,24.1,13.969,24.191z M17.177,24.668l-0.75-0.032C16.67,24.633,16.937,24.649,17.177,24.668z M20.703,20.439                        c0.529,1.07,2.282,1.232,2.171,4.268c-0.015,0.418,0.576-0.428-0.339-2.876c-0.213-0.569-0.587-1.336-1.152-1.667                        c0.063-0.012,0.126-0.024,0.188-0.042c0.322,0.116,0.687,0.172,1.046,0.3c2.241,0.795,1.708,3.253,0.828,4.861                        c-0.266,0.486-0.197,1.117-2.27-0.832c-1.3-1.221-1.466-2.632-0.751-4.172c0.076-0.06,0.144-0.126,0.206-0.198                        c0.031,0.018,0.067,0.026,0.101,0.04C20.665,20.204,20.645,20.323,20.703,20.439z M28.449,21.116                        c-2.835,1.45-3.879,0.078-2.238,2.446c-0.151,0.079-1.402,0.913-1.985,1.371c1.142-2.072,0.614-3.774-0.48-4.611                        c1.381-0.013,2.738-0.5,3.851-1.416c0.121-0.1,0.234-0.202,0.341-0.307c0.284-0.063,0.568-0.119,0.852-0.177                        C28.52,19.301,28.392,20.237,28.449,21.116z M20.373,19.134c-0.06-0.051-0.12-0.098-0.182-0.135                        c-0.26-0.414-0.368-0.904-0.284-1.383c0.016-0.01,0.03-0.021,0.043-0.036c0.145,0.489,0.438,0.567,0.466,1.396                        C20.402,19.028,20.387,19.081,20.373,19.134z M19.981,19.853c-0.344,0.156-0.978,0.489-2.037,0.461                        c0.714-0.603,1.053-0.741,1.696-0.862C19.731,19.614,19.844,19.757,19.981,19.853z M26.232,23.591                        c0.028,0.041,0.058,0.08,0.087,0.121c-0.005,0.003-0.009,0.006-0.013,0.009L26.232,23.591z M24.764,13.345                        c1.843-0.865,3.975-0.496,5.964-0.644c-1.021,0.755-1.08,2.484-1.666,3.538c-1.363,2.453-3.631,3.619-6.248,3.569                        c-0.123-0.05-0.249-0.094-0.377-0.137c0.523-0.428,0.795-1.089,0.817-1.76c0.675-0.483,1.209-1.248,1.825-1.81                        c0.782-0.714,1.659-1.344,2.532-1.94c0.039-0.027,0.016-0.102-0.034-0.082c-1.98,0.758-3.82,2.325-4.4,3.194                        c-0.202-0.235-1.289,0.166-1.565,0.358C21.917,16.032,23.073,14.139,24.764,13.345z M22.774,17.655                        c-0.063,0.797-0.539,1.483-1.361,1.726c-0.085-0.021-0.17-0.042-0.255-0.063C21.309,18.975,21.679,17.861,22.774,17.655z                        M17.755,15.932c-0.138-0.756-0.031-3.303,1.217-2.883c1.046,0.352,2.238,1.954,2.164,3.76c-0.135,0.326-0.254,0.657-0.365,0.99                        c-0.144-0.307-0.402-0.681-0.733-0.616c0.025-0.073-0.041-0.153-0.135-0.062c-0.286-0.724-0.77-1.022-0.939-3.012                        c-0.006-0.073-0.125-0.103-0.139-0.019c-0.167,0.986-0.054,2.686,0.787,3.415c-0.156,0.273-0.24,0.579-0.237,0.905                        C18.592,17.731,17.956,17.03,17.755,15.932z M7.058,21.971c1.622-1.83,3.297-3.599,5.785-4.179                        c2.249-0.524,4.004,0.41,5.895,1.229c-0.589,0.264-1.152,0.745-1.542,1.146c-4.318-0.735-6.915,1.228-6.558,1.131                        c2.111-0.57,4.158-0.923,6.331-0.725c0.098,0.49,1.986,0.274,2.472,0.154C14.928,24.446,11.006,21.536,7.058,21.971z                        M19.767,25.15c2.604,2.64,6.184,4.356,8.507,7.343c1.052,1.353,1.754,2.791,2.967,4.041c0.452,0.466,3.536,3.509,3.829,4.474                        c-0.118-0.093-0.277-0.119-0.444,0.001c-0.319,0.228-0.647,0.398-0.982,0.533c-10.917-0.133-8.825,1.327-11.261,2.538                        c-1.367,0.68-2.84-0.112-4.038-0.764c-2.052-1.116-4.057-2.397-5.898-3.832c-1.109-0.865-2.779-1.973-3.249-3.374                        c-0.233-0.697-0.13-1.471-0.402-2.164c-0.728-1.853-4.252-1.889-4.443-3.816C3.938,25.971,15.549,23.683,19.767,25.15z                        M4.059,31.807c0.871,1.021,2.3,1.149,3.147,1.911c0.095,0.337,0.147,0.673,0.173,1.007c-1.009-0.728-1.978-0.726-1.997-0.595                        c-0.022,0.092,0.404,0.249,0.947,0.664c0.342,0.254,0.727,0.637,1.034,1.121c-0.021,0.22-0.049,0.44-0.084,0.66                        c-2.171-1.522-1.966-0.868-0.198,1.057c-0.156,0.749-0.326,1.493-0.397,2.236c-0.683-0.843-1.819-1.239-2.259-2.327                        C3.731,35.823,4.089,33.726,4.059,31.807z M92.875,38.098c-0.016,0.203-0.016,0.48-0.077,0.736                        c-0.024,0.135-0.049,0.28-0.077,0.436c-0.023,0.155-0.052,0.322-0.111,0.503c-0.108,0.359-0.195,0.768-0.384,1.193                        c-0.09,0.213-0.162,0.444-0.276,0.67c-0.114,0.226-0.233,0.461-0.358,0.705c-9.691,17.384-59.93,21.378-81.383,7.106                        C4.049,45.385-0.03,39.208,3.329,32.709c-0.675,5.139,0.375,6.59,3.327,8.088c0.163,3.837,6.035,7.314,9.478,8.968                        c2.854,1.371,5.688,1.968,8.798,1.296c2.937-0.635,5.731-1.726,8.758-2.082c0.056-0.007,0.119-0.013,0.181-0.019                        c-0.056,0.078-0.074,0.178-0.049,0.275c-7.513,2.183-7.007,2.416,0.751,0.637c0.093,0.065,0.187,0.129,0.282,0.193                        c-5.647,2.13-4.772,2.208,0.851,0.56c0.17,0.109,0.341,0.215,0.514,0.322c-3.965,1.71-3.178,1.786,0.877,0.523                        c0.233,0.134,0.47,0.265,0.708,0.395c-2.917,1.328-2.141,1.338,0.863,0.453c10.502,5.317,14.937,1.81,23.372-0.251                        c-10.38,4.019-2.607,1.718,4.435-0.799l-0.031-0.088c1.932-0.484,2.756-1.256,4.606-2.515c1.707-1.161,3.115-2.519,3.454-4.642                        c0.156-0.972,0.068-1.966-0.198-2.922c0.022-0.7-0.077-1.346-0.358-2.019c-0.156-0.374-0.347-0.724-0.571-1.062                        c-0.214-0.324-0.275-0.431-0.109-0.738c0.205,0.067,0.404,0.15,0.592,0.262c0.636,0.379,1.257,0.958,1.666,1.577                        c0.127,0.193,0.23,0.394,0.33,0.596c1.12,3.622,1.643,7.983,5.958,7.576c0.188-0.018,0.329-0.141,0.338-0.337                        c0.008-0.179,0.015-0.358,0.022-0.536c0.002-0.062-0.019-0.112-0.048-0.156c0.131-3.516,2.022-6.58,2.936-6.436                        c0.424,0.067,0.757-0.51,0.315-0.747c-1.253-0.671-1.823-1.538-2.1-2.582c0.057-0.036,0.108-0.086,0.137-0.163                        c0.534-1.421,1.063-2.844,1.594-4.267c0.051-0.138-0.034-0.315-0.156-0.384c-1.74-0.978-2.4-2.853-3.711-4.25                        c-1.194-1.273-2.755-1.672-4.429-1.933c-0.929-0.144-1.875-0.242-2.771-0.543c-1.849-0.62-2.029-1.832-3.186-3.133                        c-1.056-1.188-2.692-1.272-3.929-2.102c-0.221-0.211-0.452-0.411-0.69-0.603c-0.091-0.105-0.178-0.218-0.259-0.342                        c-0.046-0.07-0.146-0.056-0.184,0.001c-0.027-0.02-0.052-0.042-0.08-0.062c-0.355-0.258-0.717-0.486-1.085-0.69                        c1.12,0.212,2.218,0.445,3.289,0.7c4.976,1.166,9.41,2.756,13.09,4.624c3.68,1.86,6.603,4.011,8.548,6.166                        c0.97,1.079,1.692,2.146,2.214,3.12c0.12,0.248,0.236,0.487,0.348,0.716c0.111,0.229,0.179,0.463,0.266,0.679                        c0.183,0.43,0.264,0.843,0.366,1.205c0.159,0.732,0.236,1.303,0.239,1.689c0.016,0.353,0.025,0.541,0.027,0.572                        C92.908,37.555,92.896,37.752,92.875,38.098z"
       id="path1466"
       style="fill:#66a55c;fill-opacity:1" />
    <path
       d="M12.921,36.077c0.761,0.697,1.966,0.681,2.864,1.108c1.357,0.645,2.197,1.898,3.483,2.602                        c0.014,0.026,0.024,0.055,0.039,0.08c0.097,0.157,0.283,0.223,0.447,0.185c0.016,0.003,0.031,0.009,0.049,0.01                        c2.122,0.035,4.435-1.008,6.308-1.938c0.064-0.031,0.107-0.077,0.14-0.128c0.183,0.015,0.364-0.067,0.404-0.293                        c0.108-0.615,0.244-1.294,0.107-1.914c0.187-0.105,0.304-0.381,0.103-0.545c-2.078-1.692-3.56-4.043-4.093-6.674                        c-0.05-0.248-0.314-0.333-0.531-0.301c-1.621,0.237-3.214,0.154-4.775-0.359c-0.893-0.294-1.908-0.984-2.916-0.814                        c-0.787,0.133-1.253,0.609-1.333,1.26c-0.145,0.292-0.246,0.597-0.295,0.908c-0.052-0.009-0.107,0.013-0.125,0.077                        C12.328,31.089,11.336,34.625,12.921,36.077z M26.414,35.917c-0.261,0.42-0.405,0.923-0.527,1.401                        c-0.035,0.003-0.07,0.004-0.108,0.019c-1.056,0.437-2.116,0.86-3.2,1.221c-0.795,0.265-1.62,0.462-2.4,0.767                        c0.076-0.491-0.014-1.034-0.044-1.514c-0.025-0.409-0.062-0.813-0.161-1.202c0.225,0.011,0.451-0.036,0.661-0.158                        C22.596,36.797,24.524,36.579,26.414,35.917z M13.856,28.192c0.63-0.821,2.267,0.16,2.693,0.322                        c0.806,0.307,1.581,0.558,2.438,0.683c1.029,0.149,2.024,0.11,3.038-0.033c0.622,2.554,1.853,4.551,3.867,6.184                        c-1.679,0.471-3.318,0.58-5.044,0.434c-0.022-0.022-0.047-0.042-0.078-0.06c-0.333-0.192-0.884-0.312-1.151-0.566                        c-0.815-0.776-0.18-0.976-0.541-1.583c-0.271-0.456-0.497-0.691-0.992-0.924c-0.824-0.387-1.771-0.282-2.603-0.664                        C13.868,31.245,13.553,29.765,13.856,28.192z M13.018,30.721c0.308,1.093,1.132,2.054,2.3,2.439                        c0.267,0.088,0.537,0.148,0.82,0.172c0.879,0.076,0.82-0.183,1.641,0.552c0.981,0.879,0.456,0.458,0.659,1.374                        c0.038,0.172,0.081,0.282,0.17,0.442c0.16,0.285,0.397,0.527,0.67,0.69c-0.131,0.457-0.163,0.934-0.175,1.421                        c-0.005,0.189-0.018,0.39-0.028,0.594c-0.939-0.974-2.236-1.752-3.389-2.271c-1.217-0.547-2.218-1.21-2.527-2.635                        C12.98,32.669,13.001,31.671,13.018,30.721z"
       id="path1468"
       style="fill:#66a55c;fill-opacity:1" />
    <path
       d="M36.79,29.956c2.035,1.26,4.511,1.693,6.874,1.687c2.457-0.005,5.309-0.181,7.523-1.339                        c1.522-0.797,2.879-1.882,2.797-3.772c-0.078-1.789-1.388-3.299-2.858-4.186c-3.551-2.141-8.079-2.125-11.774-0.273                        C36.522,23.492,32.931,27.566,36.79,29.956z M35.678,26.576c0.382-1.48,2.198-3.046,3.476-3.796                        c2.551-1.495,5.971-1.816,8.792-0.972c1.388,0.416,2.945,1.128,4.036,2.09c0.787,0.693,1.437,1.626,1.444,2.741                        c0.01,1.73-1.245,2.528-2.658,3.067c-0.711,0.271-1.464,0.477-2.115,0.702c-0.818,0.283-1.755,0.374-2.617,0.475                        c-1.842,0.218-3.715,0.21-5.538-0.162C38.632,30.34,34.954,29.384,35.678,26.576z"
       id="path1470"
       style="fill:#66a55c;fill-opacity:1" />
    <path
       d="M59.157,46.117c0.435-1.024,0.414-2.139-0.083-3.136c-0.817-1.64-2.529-2.741-4.133-3.5                        c-1.287-0.609-2.678-1.018-4.096-1.203c-2.841-0.371-5.787,0.156-8.198,1.777c-1.582,1.063-2.814,2.715-2.474,4.71                        c0.679,3.984,5.36,5.008,8.735,5.147C52.3,50.052,57.581,49.825,59.157,46.117z M49.364,49.255                        c-2.74-0.063-6.435-0.53-7.953-3.169c-1.164-2.022-0.16-4.227,1.572-5.536c1.384-1.046,3.067-1.674,4.782-1.897                        c1.137-0.147,2.293-0.092,3.422,0.089c1.77,0.283,3.404,0.959,4.872,1.971c1.395,0.962,3.004,2.485,2.711,4.356                        c-0.087,0.562-0.346,1.082-0.681,1.536C56.171,49.198,52.302,49.322,49.364,49.255z"
       id="path1472"
       style="fill:#66a55c;fill-opacity:1" />
    <path
       d="M11.179,41.499c0.813,0.776,2.022,1.773,3.507,2.649c1.486,0.874,2.944,1.449,4.017,1.784                        c0.537,0.168,0.976,0.285,1.283,0.355c0.306,0.069,0.475,0.107,0.475,0.107s-0.157-0.074-0.441-0.206                        c-0.285-0.128-0.693-0.324-1.192-0.568c-1-0.487-2.351-1.198-3.8-2.05c-1.448-0.855-2.725-1.692-3.635-2.331                        c-0.455-0.319-0.824-0.58-1.074-0.767c-0.254-0.184-0.394-0.286-0.394-0.286s0.116,0.13,0.324,0.364                        C10.457,40.783,10.772,41.111,11.179,41.499z"
       id="path1474"
       style="fill:#66a55c;fill-opacity:1" />
    <path
       d="M18.502,46.903c-0.709-0.281-1.656-0.708-2.664-1.242c-1.007-0.536-1.892-1.081-2.522-1.511                        c-0.315-0.214-0.571-0.392-0.743-0.52c-0.176-0.126-0.274-0.196-0.274-0.196s0.072,0.097,0.201,0.271                        c0.13,0.175,0.331,0.417,0.599,0.701c0.533,0.568,1.364,1.284,2.424,1.848c1.061,0.562,2.121,0.849,2.889,0.972                        c0.385,0.063,0.699,0.094,0.916,0.104c0.216,0.009,0.337,0.015,0.337,0.015s-0.113-0.042-0.316-0.117                        C19.146,47.156,18.856,47.044,18.502,46.903z"
       id="path1476"
       style="fill:#66a55c;fill-opacity:1" />
    <path
       d="M15.645,47.199c-0.767-0.441-1.452-0.868-1.945-1.202c-0.491-0.338-0.803-0.553-0.803-0.553                        s0.184,0.332,0.579,0.803c0.392,0.469,1.018,1.065,1.836,1.535c0.819,0.468,1.65,0.705,2.254,0.806                        c0.606,0.102,0.986,0.093,0.986,0.093s-0.343-0.16-0.884-0.413C17.129,48.011,16.414,47.637,15.645,47.199z"
       id="path1478"
       style="fill:#66a55c;fill-opacity:1" />
    <path
       d="M57.753,44.471c0,0-0.003,0.063-0.009,0.184c0.001,0.06-0.01,0.133-0.026,0.219                        c-0.01,0.086-0.035,0.184-0.07,0.291c-0.121,0.432-0.482,0.993-1.107,1.482c-0.309,0.247-0.681,0.477-1.1,0.68                        c-0.207,0.105-0.431,0.193-0.669,0.279c-0.236,0.084-0.472,0.188-0.728,0.254c-1.008,0.317-2.156,0.527-3.371,0.574                        c-2.439,0.106-4.628-0.49-6.1-1.146c-0.736-0.335-1.309-0.664-1.694-0.909c-0.381-0.254-0.592-0.394-0.592-0.394                        s0.189,0.171,0.53,0.479c0.351,0.298,0.886,0.703,1.604,1.124c0.721,0.413,1.637,0.818,2.705,1.111                        c1.067,0.291,2.291,0.458,3.574,0.406c1.282-0.049,2.492-0.315,3.529-0.709c0.264-0.086,0.506-0.209,0.746-0.315                        c0.239-0.105,0.471-0.219,0.684-0.349c0.429-0.253,0.802-0.534,1.105-0.832c0.614-0.589,0.924-1.244,0.987-1.709                        c0.02-0.116,0.031-0.219,0.028-0.309c0.004-0.09,0.003-0.165-0.006-0.225C57.76,44.534,57.753,44.471,57.753,44.471z"
       id="path1480"
       style="fill:#66a55c;fill-opacity:1" />
    <path
       d="M45.29,46.825c0.183,0.105,0.387,0.236,0.631,0.344c0.478,0.241,1.079,0.466,1.768,0.645                        c0.692,0.165,1.474,0.275,2.3,0.272c0.825-0.013,1.605-0.138,2.294-0.317c0.686-0.192,1.282-0.429,1.755-0.68                        c0.242-0.113,0.444-0.248,0.625-0.356c0.183-0.106,0.33-0.212,0.448-0.303c0.235-0.178,0.366-0.276,0.366-0.276                        s-0.15,0.066-0.418,0.186c-0.132,0.062-0.295,0.135-0.491,0.204c-0.194,0.071-0.408,0.166-0.659,0.236                        c-0.488,0.167-1.085,0.314-1.748,0.437c-0.666,0.109-1.402,0.186-2.177,0.199c-0.776,0.003-1.512-0.06-2.181-0.156                        c-0.666-0.11-1.264-0.245-1.757-0.402c-0.251-0.065-0.467-0.156-0.663-0.223c-0.197-0.065-0.362-0.135-0.495-0.195                        c-0.272-0.114-0.422-0.177-0.422-0.177s0.132,0.096,0.371,0.269C44.956,46.619,45.105,46.722,45.29,46.825z"
       id="path1482"
       style="fill:#66a55c;fill-opacity:1" />
    <path
       d="M38.332,29.348c1.421,0.591,3.546,1.139,5.928,1.043c1.186-0.043,2.307-0.234,3.298-0.5                        c0.99-0.27,1.845-0.624,2.541-0.955c0.692-0.343,1.224-0.666,1.58-0.905c0.351-0.244,0.545-0.38,0.545-0.38                        s-0.212,0.103-0.597,0.288c-0.384,0.182-0.949,0.429-1.659,0.687c-0.714,0.248-1.571,0.513-2.542,0.713                        c-0.972,0.197-2.052,0.338-3.191,0.38c-2.28,0.092-4.343-0.268-5.789-0.688c-0.72-0.212-1.276-0.469-1.64-0.685                        c-0.365-0.214-0.546-0.37-0.546-0.37s0.04,0.043,0.118,0.125c0.08,0.08,0.2,0.196,0.369,0.331                        C37.08,28.706,37.615,29.049,38.332,29.348z"
       id="path1484"
       style="fill:#66a55c;fill-opacity:1" />
    <path
       d="M38.742,27.995c0.204,0.094,0.435,0.212,0.702,0.307c0.527,0.214,1.18,0.41,1.923,0.56                        c0.743,0.138,1.578,0.222,2.455,0.199c0.876-0.032,1.703-0.167,2.437-0.351c0.732-0.196,1.372-0.432,1.885-0.678                        c0.262-0.111,0.484-0.243,0.682-0.35c0.199-0.104,0.364-0.208,0.494-0.296c0.263-0.174,0.408-0.27,0.408-0.27                        s-0.162,0.063-0.455,0.177c-0.144,0.06-0.322,0.129-0.535,0.196c-0.211,0.069-0.444,0.16-0.714,0.23                        c-0.53,0.163-1.171,0.311-1.884,0.438c-0.717,0.115-1.506,0.203-2.34,0.234c-0.834,0.021-1.628-0.018-2.35-0.088                        c-0.72-0.083-1.369-0.191-1.907-0.321c-0.274-0.053-0.512-0.129-0.727-0.185c-0.215-0.054-0.398-0.112-0.546-0.163                        c-0.299-0.095-0.465-0.148-0.465-0.148s0.151,0.087,0.424,0.245C38.367,27.81,38.537,27.903,38.742,27.995z"
       id="path1486"
       style="fill:#66a55c;fill-opacity:1" />
    <path
       d="M32.511,19.66c1.034-0.419,2.482-0.921,4.116-1.34c1.634-0.414,3.145-0.666,4.254-0.793                        c0.554-0.064,1.005-0.109,1.319-0.129c0.313-0.025,0.488-0.04,0.488-0.04s-0.173-0.021-0.486-0.059                        c-0.313-0.039-0.77-0.074-1.335-0.088c-0.501-0.014-1.094,0.001-1.742,0.055c0.258-0.084,0.519-0.17,0.782-0.256                        c1.046-0.342,2.048-0.633,2.975-0.817c0.926-0.181,1.775-0.264,2.489-0.236c0.713,0.025,1.291,0.129,1.679,0.241                        c0.199,0.044,0.343,0.108,0.447,0.137c0.102,0.034,0.156,0.051,0.156,0.051s-0.05-0.026-0.145-0.076                        c-0.097-0.045-0.233-0.132-0.425-0.206c-0.374-0.17-0.948-0.356-1.685-0.463c-0.736-0.111-1.631-0.105-2.604,0.024                        c-0.972,0.132-2.019,0.394-3.084,0.742c-1.06,0.349-2.047,0.715-2.955,1.006c-0.907,0.291-1.734,0.512-2.443,0.632                        c-0.708,0.122-1.293,0.164-1.699,0.162c-0.203,0.008-0.36-0.009-0.468-0.009c-0.107-0.003-0.164-0.005-0.164-0.005                        s0.056,0.011,0.161,0.032c0.106,0.017,0.261,0.059,0.465,0.08c0.406,0.062,1.004,0.1,1.742,0.054                        c0.053-0.003,0.112-0.01,0.167-0.015c-0.842,0.333-1.572,0.699-2.143,1.03c-0.49,0.284-0.874,0.532-1.13,0.716                        c-0.256,0.183-0.398,0.285-0.398,0.285s0.16-0.071,0.447-0.199C31.576,20.045,31.994,19.868,32.511,19.66z"
       id="path1488"
       style="fill:#66a55c;fill-opacity:1" />
    <path
       d="M54.341,19.373c0.313,0.237,0.8,0.544,1.447,0.833c0.646,0.289,1.452,0.551,2.355,0.769                        c0.904,0.221,1.899,0.4,2.916,0.642c1.014,0.243,1.958,0.544,2.74,0.962c0.782,0.416,1.41,0.936,1.848,1.449                        c0.438,0.515,0.695,1.016,0.824,1.378c0.063,0.182,0.108,0.326,0.129,0.426c0.025,0.1,0.039,0.152,0.039,0.152                        s-0.005-0.054-0.012-0.156c-0.003-0.104-0.025-0.254-0.061-0.449c-0.075-0.387-0.265-0.944-0.667-1.543                        c-0.402-0.596-1.019-1.218-1.835-1.721c-0.816-0.506-1.809-0.862-2.858-1.114c-0.277-0.066-0.549-0.123-0.818-0.176                        c-0.067-0.031-0.138-0.063-0.213-0.098c-0.587-0.273-1.387-0.645-2.268-1.054c-0.877-0.417-1.674-0.796-2.259-1.074                        c-0.582-0.281-0.95-0.459-0.95-0.459s0.274,0.303,0.778,0.725c0.503,0.422,1.251,0.953,2.161,1.381                        c0.13,0.061,0.257,0.11,0.385,0.163c-0.804-0.146-1.526-0.31-2.123-0.499c-0.654-0.208-1.165-0.437-1.507-0.621                        c-0.17-0.093-0.301-0.167-0.387-0.222c-0.088-0.053-0.135-0.081-0.135-0.081s0.04,0.035,0.118,0.103                        C54.066,19.159,54.184,19.254,54.341,19.373z"
       id="path1490"
       style="fill:#66a55c;fill-opacity:1" />
    <path
       d="M78.04,36.768c-0.495-1.045-1.236-2.106-2.186-3.052c-0.951-0.948-2.069-1.63-3.088-2.124                        c-1.02-0.503-1.94-0.915-2.658-1.358c-0.727-0.429-1.235-0.892-1.551-1.245c-0.159-0.176-0.27-0.324-0.34-0.429                        c-0.074-0.102-0.113-0.156-0.113-0.156s0.031,0.059,0.09,0.17c0.055,0.114,0.147,0.277,0.286,0.475                        c0.273,0.396,0.745,0.937,1.451,1.447c0.696,0.524,1.605,1.018,2.584,1.567c0.984,0.544,1.992,1.206,2.895,2.104                        c0.898,0.895,1.631,1.873,2.156,2.846c0.533,0.969,0.883,1.912,1.106,2.726c0.233,0.813,0.305,1.499,0.368,1.972                        c0.031,0.477,0.049,0.741,0.049,0.741s0.018-0.265,0.049-0.744c-0.004-0.479,0.003-1.183-0.158-2.037                        C78.83,38.817,78.543,37.811,78.04,36.768z"
       id="path1492"
       style="fill:#66a55c;fill-opacity:1" />
    <path
       d="M77.844,32.907c1.401,1.107,2.373,2.448,2.825,3.538c0.231,0.542,0.36,1.011,0.42,1.341                        c0.062,0.329,0.084,0.517,0.084,0.517s0.018-0.186,0.014-0.528c-0.001-0.341-0.053-0.839-0.219-1.436                        c-0.317-1.193-1.231-2.746-2.729-3.928c-1.495-1.175-3.095-1.795-4.23-2.199c-1.147-0.397-1.871-0.589-1.871-0.589                        s0.67,0.338,1.747,0.88C74.954,31.05,76.438,31.799,77.844,32.907z"
       id="path1494"
       style="fill:#66a55c;fill-opacity:1" />
    <path
       d="M64.312,20.034c0.475,0.396,1.074,0.981,1.655,1.687c0.579,0.709,1.034,1.411,1.329,1.955                        c0.148,0.27,0.265,0.496,0.337,0.656c0.077,0.159,0.12,0.248,0.12,0.248s-0.009-0.099-0.025-0.275                        c-0.015-0.178-0.058-0.434-0.137-0.745c-0.154-0.622-0.503-1.469-1.134-2.24c-0.633-0.77-1.395-1.279-1.974-1.552                        c-0.29-0.139-0.532-0.23-0.704-0.28c-0.17-0.05-0.265-0.078-0.265-0.078s0.079,0.06,0.22,0.166                        C63.878,19.677,64.076,19.836,64.312,20.034z"
       id="path1496"
       style="fill:#66a55c;fill-opacity:1" />
    <path
       d="M76.789,27.847c0.313,0.523,1.018,1.063,1.888,1.317c0.858,0.246,1.618,0.298,2.158,0.416                        c0.27,0.055,0.49,0.11,0.64,0.158c0.15,0.049,0.235,0.076,0.235,0.076s-0.063-0.062-0.189-0.164                        c-0.126-0.102-0.322-0.235-0.58-0.369c-0.515-0.278-1.292-0.497-2.082-0.725c-0.776-0.23-1.434-0.552-1.825-0.912                        c-0.196-0.177-0.334-0.353-0.414-0.487c-0.081-0.133-0.12-0.214-0.12-0.214s0,0.088,0.028,0.25                        C76.554,27.356,76.63,27.589,76.789,27.847z"
       id="path1498"
       style="fill:#66a55c;fill-opacity:1" />
    <path
       d="M69.007,28.277c0.494,0.597,1.078,1.004,1.522,1.235c0.447,0.233,0.748,0.314,0.748,0.314                        s-0.218-0.222-0.558-0.568c-0.337-0.348-0.77-0.835-1.224-1.384c-0.453-0.55-0.849-1.067-1.128-1.464                        c-0.275-0.399-0.452-0.655-0.452-0.655s0.022,0.311,0.168,0.793C68.226,27.029,68.514,27.679,69.007,28.277z"
       id="path1500"
       style="fill:#66a55c;fill-opacity:1" />
    <path
       d="M47.701,39.612c0.884-0.043,2.094,0.012,3.393,0.265c1.298,0.259,2.438,0.668,3.239,1.044                        c0.4,0.187,0.724,0.351,0.939,0.478c0.221,0.122,0.343,0.19,0.343,0.19s-0.1-0.098-0.281-0.275                        c-0.18-0.179-0.461-0.417-0.832-0.683c-0.369-0.27-0.842-0.548-1.394-0.805c-0.555-0.247-1.193-0.468-1.884-0.608                        c-0.693-0.133-1.366-0.171-1.974-0.154c-0.608,0.028-1.15,0.106-1.595,0.215c-0.445,0.106-0.796,0.219-1.03,0.316                        c-0.234,0.095-0.364,0.147-0.364,0.147s0.139-0.016,0.389-0.046C46.897,39.662,47.259,39.633,47.701,39.612z"
       id="path1502"
       style="fill:#66a55c;fill-opacity:1" />
    <path
       d="M71.741,40.737c0.364,1.314,0.26,2.603,0.023,3.491c-0.116,0.447-0.25,0.804-0.358,1.044                        c-0.111,0.24-0.173,0.374-0.173,0.374s0.1-0.108,0.263-0.321c0.164-0.213,0.379-0.542,0.583-0.985                        c0.411-0.872,0.72-2.292,0.307-3.783c-0.417-1.49-1.415-2.546-2.218-3.081c-0.403-0.275-0.758-0.445-1.008-0.542                        c-0.25-0.098-0.392-0.139-0.392-0.139s0.123,0.083,0.342,0.231c0.216,0.15,0.516,0.387,0.846,0.709                        C70.618,38.375,71.375,39.423,71.741,40.737z"
       id="path1504"
       style="fill:#66a55c;fill-opacity:1" />
    <path
       d="M59.803,42.261c-0.347-0.625-0.785-1.102-1.199-1.432c-0.414-0.331-0.791-0.531-1.061-0.641                        c-0.269-0.11-0.422-0.153-0.422-0.153s0.138,0.082,0.371,0.245c0.233,0.161,0.55,0.424,0.881,0.792                        c0.662,0.723,1.346,1.977,1.358,3.433c0.003,1.456-0.667,2.717-1.322,3.447c-0.327,0.372-0.64,0.638-0.872,0.802                        c-0.231,0.165-0.368,0.249-0.368,0.249s0.153-0.044,0.42-0.158c0.268-0.112,0.643-0.316,1.054-0.652                        c0.411-0.334,0.842-0.816,1.183-1.444c0.34-0.625,0.574-1.407,0.575-2.248C60.393,43.661,60.151,42.882,59.803,42.261z"
       id="path1506"
       style="fill:#66a55c;fill-opacity:1" />
    <path
       d="M60.585,42.086c-0.212-0.188-0.405-0.31-0.542-0.382c-0.138-0.073-0.216-0.103-0.216-0.103                        s0.054,0.066,0.149,0.184c0.094,0.117,0.22,0.293,0.351,0.516c0.265,0.444,0.524,1.094,0.596,1.825                        c0.071,0.731-0.057,1.42-0.23,1.906c-0.085,0.243-0.175,0.441-0.244,0.574c-0.071,0.134-0.111,0.209-0.111,0.209                        s0.071-0.046,0.192-0.143c0.12-0.098,0.286-0.254,0.457-0.48c0.343-0.441,0.691-1.224,0.604-2.132                        C61.5,43.153,61.007,42.452,60.585,42.086z"
       id="path1508"
       style="fill:#66a55c;fill-opacity:1" />
    <path
       d="M53.127,23.379c0.334,0.445,0.666,1.023,0.873,1.706c0.201,0.681,0.277,1.478,0.118,2.27                        c-0.15,0.793-0.54,1.477-1.01,2.022c-0.467,0.549-0.993,0.97-1.444,1.309c-0.454,0.339-0.842,0.595-1.107,0.776                        c-0.266,0.181-0.414,0.28-0.414,0.28s0.165-0.067,0.463-0.188c0.297-0.126,0.726-0.309,1.238-0.585                        c0.509-0.278,1.112-0.646,1.679-1.207c0.565-0.551,1.079-1.344,1.254-2.278c0.185-0.927,0.048-1.84-0.242-2.585                        c-0.297-0.748-0.737-1.326-1.155-1.741c-0.42-0.416-0.816-0.68-1.094-0.845c-0.28-0.163-0.444-0.235-0.444-0.235                        s0.143,0.108,0.382,0.319C52.462,22.611,52.792,22.932,53.127,23.379z"
       id="path1510"
       style="fill:#66a55c;fill-opacity:1" />
    <path
       d="M55.018,24.897c0.182,0.588,0.309,1.423,0.194,2.308c-0.115,0.886-0.45,1.66-0.776,2.182                        c-0.162,0.262-0.316,0.468-0.429,0.605c-0.115,0.137-0.18,0.214-0.18,0.214s0.091-0.042,0.248-0.135                        c0.157-0.092,0.376-0.244,0.619-0.471c0.482-0.444,1.046-1.26,1.182-2.309c0.135-1.05-0.201-1.981-0.555-2.534                        c-0.177-0.282-0.35-0.484-0.479-0.614c-0.129-0.13-0.206-0.193-0.206-0.193s0.043,0.091,0.119,0.252                        C54.833,24.364,54.928,24.602,55.018,24.897z"
       id="path1512"
       style="fill:#66a55c;fill-opacity:1" />
    <path
       d="M15.414,30.65c0.169,0.163,0.398,0.304,0.628,0.407c0.469,0.212,1,0.31,1.486,0.453                        c0.957,0.256,1.629,0.938,1.982,1.518c0.18,0.29,0.284,0.556,0.343,0.745c0.061,0.189,0.086,0.3,0.086,0.3                        s0.018-0.111,0.018-0.316c0.001-0.205-0.023-0.509-0.142-0.868c-0.118-0.357-0.328-0.773-0.678-1.151                        c-0.34-0.377-0.85-0.714-1.419-0.871c-0.559-0.161-1.062-0.213-1.476-0.34c-0.413-0.113-0.721-0.325-0.936-0.576                        c-0.215-0.245-0.298-0.51-0.303-0.701c-0.003-0.095,0.006-0.172,0.019-0.222c0.011-0.052,0.017-0.079,0.017-0.079                        s-0.015,0.024-0.044,0.069c-0.03,0.044-0.067,0.118-0.096,0.22c-0.062,0.201-0.06,0.545,0.125,0.897                        C15.115,30.31,15.242,30.488,15.414,30.65z"
       id="path1514"
       style="fill:#66a55c;fill-opacity:1" />
    <path
       d="M27.992,34.266c1.855,2.325,3.62,4.006,3.62,4.006s-1.238-2.097-3.096-4.425                        c-0.931-1.164-1.858-2.154-2.559-2.84c-0.701-0.687-1.17-1.076-1.17-1.076s0.352,0.498,0.915,1.294                        C26.274,32.017,27.064,33.105,27.992,34.266z"
       id="path1516"
       style="fill:#66a55c;fill-opacity:1" />
    <path
       d="M26.715,40.675c-0.985,0.209-1.82,0.599-2.378,0.937c-0.562,0.339-0.865,0.607-0.865,0.607                        s0.387-0.116,1-0.3c0.613-0.179,1.453-0.391,2.383-0.588c0.93-0.195,1.784-0.34,2.417-0.424c0.634-0.079,1.035-0.13,1.035-0.13                        s-0.386-0.123-1.037-0.206C28.621,40.488,27.701,40.468,26.715,40.675z"
       id="path1518"
       style="fill:#66a55c;fill-opacity:1" />
    <path
       d="M8.179,30.09c0.255-0.004,0.463-0.098,0.6-0.214c0.284-0.244,0.245-0.486,0.253-0.472                        c0,0-0.039,0.034-0.107,0.076c-0.067,0.043-0.173,0.082-0.293,0.095c-0.24,0.037-0.568-0.084-0.665-0.252                        c-0.12-0.153-0.108-0.502,0.017-0.711c0.057-0.106,0.133-0.19,0.198-0.236c0.065-0.047,0.111-0.071,0.111-0.071                        c0.009,0.013-0.2-0.115-0.533,0.056c-0.159,0.083-0.324,0.241-0.423,0.476c-0.1,0.227-0.119,0.569,0.074,0.86                        C7.607,29.985,7.931,30.097,8.179,30.09z"
       id="path1520"
       style="fill:#66a55c;fill-opacity:1" />
    <path
       d="M11.682,27.843c0.206,0.055,0.395,0.03,0.533-0.027c0.285-0.121,0.329-0.316,0.331-0.305                        c0,0-0.175,0.041-0.365-0.029c-0.193-0.058-0.382-0.236-0.433-0.374c-0.067-0.131-0.07-0.391,0.017-0.572                        c0.077-0.187,0.225-0.289,0.225-0.289c0.006,0.009-0.166-0.09-0.448,0.038c-0.136,0.063-0.282,0.185-0.381,0.374                        c-0.098,0.184-0.141,0.457-0.028,0.719C11.251,27.637,11.48,27.79,11.682,27.843z"
       id="path1522"
       style="fill:#66a55c;fill-opacity:1" />
    <path
       d="M12.205,37.674c-0.091-0.064-0.157-0.132-0.197-0.19c-0.042-0.061-0.057-0.173-0.039-0.263                        c0.016-0.092,0.061-0.171,0.11-0.215c0.049-0.046,0.092-0.062,0.091-0.064c0,0.003-0.035-0.026-0.119-0.037                        c-0.082-0.012-0.22,0.011-0.35,0.115c-0.128,0.102-0.254,0.283-0.254,0.544c0.005,0.263,0.158,0.51,0.371,0.658                        c0.211,0.149,0.457,0.196,0.656,0.181c0.199-0.013,0.357-0.074,0.478-0.133c0.24-0.123,0.363-0.242,0.363-0.242                        s-0.17-0.043-0.412-0.09C12.655,37.889,12.385,37.811,12.205,37.674z"
       id="path1524"
       style="fill:#66a55c;fill-opacity:1" />
    <path
       d="M21.403,42.295c-0.221-0.022-0.474-0.187-0.545-0.345c-0.089-0.148-0.08-0.45,0.027-0.644                        c0.097-0.203,0.269-0.298,0.269-0.298c0.008,0.011-0.182-0.101-0.49,0.045c-0.148,0.071-0.305,0.209-0.406,0.42                        c-0.102,0.204-0.137,0.508,0.006,0.788c0.148,0.277,0.419,0.421,0.645,0.454c0.231,0.036,0.433-0.015,0.576-0.095                        c0.295-0.169,0.312-0.389,0.316-0.377C21.801,42.244,21.626,42.332,21.403,42.295z"
       id="path1526"
       style="fill:#66a55c;fill-opacity:1" />
    <path
       d="M28.19,38c-0.093,0.086-0.18,0.224-0.209,0.403c-0.03,0.176,0.008,0.406,0.166,0.591                        c0.161,0.183,0.383,0.253,0.562,0.248c0.182-0.003,0.33-0.07,0.429-0.15c0.203-0.167,0.191-0.337,0.195-0.328                        c0,0-0.145,0.049-0.306,0.012c-0.163-0.027-0.319-0.147-0.372-0.221c-0.065-0.063-0.162-0.234-0.166-0.399                        c-0.014-0.164,0.055-0.301,0.055-0.301C28.551,37.858,28.385,37.823,28.19,38z"
       id="path1528"
       style="fill:#66a55c;fill-opacity:1" />
    <path
       d="M17.359,26.912c0.183-0.019,0.328-0.097,0.422-0.185c0.194-0.183,0.176-0.353,0.18-0.346                        c0,0-0.144,0.06-0.314,0.038c-0.171-0.013-0.347-0.116-0.422-0.194c-0.084-0.068-0.2-0.236-0.227-0.405                        c-0.036-0.167,0.012-0.316,0.012-0.316c0.008,0.004-0.163,0-0.33,0.208c-0.08,0.101-0.146,0.252-0.15,0.436                        c-0.006,0.181,0.062,0.405,0.24,0.571C16.951,26.882,17.179,26.932,17.359,26.912z"
       id="path1530"
       style="fill:#66a55c;fill-opacity:1" />
    <path
       d="M44.107,22.223c0.708-0.022,1.669,0.018,2.71,0.171c1.041,0.157,1.972,0.399,2.642,0.626                        c0.334,0.113,0.608,0.212,0.793,0.289c0.188,0.074,0.292,0.114,0.292,0.114s-0.085-0.073-0.239-0.205                        c-0.155-0.133-0.393-0.308-0.703-0.502c-0.617-0.389-1.565-0.818-2.686-0.987c-1.12-0.165-2.153-0.031-2.856,0.161                        c-0.354,0.095-0.632,0.193-0.819,0.275c-0.186,0.081-0.289,0.126-0.289,0.126s0.112-0.009,0.313-0.024                        C43.463,22.248,43.754,22.233,44.107,22.223z"
       id="path1532"
       style="fill:#66a55c;fill-opacity:1" />
    <path
       d="M48.326,33.944c-0.936,0.404-1.492,0.705-1.492,0.705s0.614-0.149,1.598-0.387                        c0.984-0.244,2.334-0.579,3.824-0.949c1.488-0.38,2.836-0.724,3.818-0.975c0.98-0.256,1.592-0.416,1.592-0.416                        s-0.632-0.002-1.649,0.085c-1.015,0.086-2.415,0.276-3.925,0.655C50.583,33.043,49.261,33.539,48.326,33.944z"
       id="path1534"
       style="fill:#66a55c;fill-opacity:1" />
  </g>
</svg>
