<?xml version="1.0" encoding="UTF-8" standalone="no"?>
<svg
   xmlns:dc="http://purl.org/dc/elements/1.1/"
   xmlns:cc="http://creativecommons.org/ns#"
   xmlns:rdf="http://www.w3.org/1999/02/22-rdf-syntax-ns#"
   xmlns:svg="http://www.w3.org/2000/svg"
   xmlns="http://www.w3.org/2000/svg"
   xmlns:sodipodi="http://sodipodi.sourceforge.net/DTD/sodipodi-0.dtd"
   xmlns:inkscape="http://www.inkscape.org/namespaces/inkscape"
   x="0px"
   y="0px"
   width="120px"
   height="110px"
   viewBox="0 0 95 70"
   version="1.1"
   id="svg1658"
   sodipodi:docname="i_salad.svg"
   inkscape:version="0.92.4 (5da689c313, 2019-01-14)">
  <metadata
     id="metadata1664">
    <rdf:RDF>
      <cc:Work
         rdf:about="">
        <dc:format>image/svg+xml</dc:format>
        <dc:type
           rdf:resource="http://purl.org/dc/dcmitype/StillImage" />
        <dc:title></dc:title>
      </cc:Work>
    </rdf:RDF>
  </metadata>
  <defs
     id="defs1662" />
  <sodipodi:namedview
     pagecolor="#ffffff"
     bordercolor="#666666"
     borderopacity="1"
     objecttolerance="10"
     gridtolerance="10"
     guidetolerance="10"
     inkscape:pageopacity="0"
     inkscape:pageshadow="2"
     inkscape:window-width="1920"
     inkscape:window-height="1017"
     id="namedview1660"
     showgrid="false"
     inkscape:zoom="2.1454545"
     inkscape:cx="60"
     inkscape:cy="55"
     inkscape:window-x="-8"
     inkscape:window-y="-8"
     inkscape:window-maximized="1"
     inkscape:current-layer="svg1658" />
  <g
     id="g1656"
     style="fill:#66a55f;fill-opacity:1">
    <path
       d="M89.652,4.833c0.993-0.542,3.176-1.352,3.184-2.782c0.03-0.075,0.023-0.149-0.011-0.213                        c-0.376-2.934-8.924-0.274-11.57,0.546c-7.259,2.251-18.295,5.401-24.357,8.128c-20.99-1.696-49.182,2.445-47.57,11.867                        c0.008,2.242,1.353,8.442,4.4,14.529C2.224,41.811-3.102,50.196,6.535,57.903c11.652,9.273,38.986,12.475,59.804,8.366                        c28.606-5.572,34.29-20.637,14.001-29.306c0.386-0.816,0.757-1.64,1.096-2.477c1.786-4.409,2.831-9.446,2.948-11.167                        c0.47-1.122,0.443-2.368-0.218-3.669c-2.328-4.402-11.417-6.727-16.311-7.685c6.269-1.646,15.71-4.097,21.549-7.073                        C89.483,4.897,89.566,4.881,89.652,4.833z M10.55,21.686c0.534-7.158,23.205-12.118,44.968-10.523                        c-1.377,0.678-2.715,1.434-3.981,2.286c-0.267-1.192-1.828-1.661-2.823-0.937c-1.324-1.58-3.417-0.588-3.358,0.899                        c-1.414-1.473-6.131-3.091-8.916-1.46c-1.036,0.607-2.116,1.596-2.339,2.614c-3.451-3.802,1.246-0.81-15.405,1.861                        c3.15-1.381,5.672-2.136,8.602-2.843c-3.452,0.456-6.711,1.265-10.374,3.005c-0.416,0.03-0.729,0.074-0.875,0.427                        c-2.757,1.407-5.781,3.472-4.77,6.648C10.459,22.552,10.509,21.335,10.55,21.686z M29.549,20.029                        c-0.133-0.047-0.268,0.034-0.342,0.139c-0.839,1.2-2.152,1.468-3.414,0.683c-0.117-0.073-0.311-0.057-0.403,0.051                        c-0.344-0.071-0.689-0.142-1.033-0.213c2.565-1.265,5.539-2.304,8.35-3.053C32.571,20.091,30.864,20.492,29.549,20.029z                        M30.427,20.792c-0.384,0.111-0.835,0.239-1.321,0.386C29.4,20.882,29.589,20.732,30.427,20.792z M13.714,22.644                        c-1.19-1.639,0.127-3.674,2.118-3.111c0.058,0.016,0.111,0.019,0.162,0.016c-0.071,2.442,1.234,2.586,1.941,4.012                        c-0.36,0.284-0.665,0.665-0.873,1.147c-1.135-0.379-1.848,0.413-2.003,1.343c-1.108-0.55-3.299-1.828-1.504-2.798                        C13.751,23.147,13.852,22.835,13.714,22.644z M14.278,18.668c0.528-0.331,1.102-0.64,1.698-0.944                        c0.024,0.341,0.088,0.689,0.071,0.928C15.41,18.472,14.807,18.498,14.278,18.668z M18.932,20.718                        c-0.06-0.074-0.151-0.116-0.245-0.12c-0.429-1.198-1.005-2.318-1.863-3.255c5.994-0.002,14.92-3.674,14.92-3.674                        c0.871-0.019,1.445,0.928,1.965,1.568C28.528,15.925,23.401,18.051,18.932,20.718z M33.438,15.962                        c-0.277,1.275-2.241,1.4-3.526,1.817c-3.336,1.081-8.207,3.11-11.003,5.287c-0.018,0.005-0.035,0.013-0.052,0.018                        c0.06-0.546,0.114-1.093,0.133-1.639C23.59,18.814,28.353,17.246,33.438,15.962z M18.298,21.432                        c-0.058,0.387-0.099,0.778-0.133,1.169c-0.334-0.436-0.722-0.832-1.049-1.316c-0.732-1.084-0.386-2.281-0.493-3.456                        C18.071,20.259,18.125,21.065,18.298,21.432z M16.27,25.836c0.366-0.42,0.56-0.095,0.978-0.167                        c0.675-0.115,0.644-0.968,1.238-1.404c1.256-0.923,2.944-0.043,3.059,1.461c0.018,0.23,0.182,0.43,0.429,0.429                        c2.166-0.017,1.919,2.023,1.331,3.336C21.062,28.942,14.753,27.575,16.27,25.836z M23.169,25.635                        c-0.678-0.361-0.615-0.198-0.955-0.932c-0.482-1.04-1.337-1.592-2.229-1.709c1.222-0.632,2.422-1.308,3.646-1.939                        c0.075,0.626,0.645,0.967,1.384,0.901c1.063-0.094,0.186-0.238,1.801,0.02C25.199,22.636,22.81,23.93,23.169,25.635z                        M33.254,17.497c0.67-0.172,0.908-0.039,0.815-1.253c0.201,1.213-0.321,1.969,1.391,3.298c-1.228,0.211-1.874,0.397-3.063,0.702                        C33.349,19.416,33.54,17.82,33.254,17.497z M34.015,15.818c0.001,0,0.002-0.001,0.003-0.001c0.001,0.012,0.001,0.023,0.002,0.034                        C34.018,15.84,34.017,15.83,34.015,15.818z M37.877,12.154c7.1-2.204,10.73,6.085,4.378,8.123                        C35.87,22.326,31.689,14.074,37.877,12.154z M45.595,13.681c0.026-0.013,0.05-0.032,0.063-0.06                        c0.829-1.712,2.215-1.543,2.606-0.397c0.097,0.286,0.443,0.394,0.671,0.177c0.798-0.762,1.592-0.304,1.869,0.559                        c-1.893,1.363-3.604,2.958-5.004,4.862c-0.018-0.003-0.033-0.003-0.051-0.003c-0.157,0.11-0.314,0.212-0.478,0.311                        C46.552,17.056,46.485,15.946,45.595,13.681z M12.729,22.762c-0.516,0.478-0.714,1.193-0.556,1.887                        c-0.121-0.11-0.086-0.043-0.531-0.541c-0.525-1.295-0.285-2.892,1.139-4.287C12.245,20.643,12.136,21.739,12.729,22.762z                        M66.015,64.552C37.733,69.654,3.839,62.478,2.84,49.429c-0.003-0.004-0.002-0.086-0.007-0.027                        c0.321-5.668,5.988-9.197,11.373-11.574c0.26,0.492,0.529,0.979,0.805,1.461c-16.453,7.555-9.316,20.516,18.026,23.521                        C3.618,57.453,1.999,46.594,15.38,39.933c0.531,0.928,2.15,4.146,4.895,6.334c-0.826,1.006-1.04,1.782-1.111,2.743                        c0,0-0.77,7.331,19.54,9.222c2.082,0.186,3.994,0.279,5.691,0.29c3.781,0.03,6.208-0.18,8.197-0.373l-0.003-0.037                        c-2.011,0.127-5.181,0.17-8.185,0.03c-15.53-0.753-28.02-5.872-23.437-11.353c0.1,0.072,0.2,0.146,0.301,0.215                        c2.818,6.872,15.767,9.557,23.479,9.975c12.778,0.662,24.24-2.924,28.283-8.228c-0.609,2.74-3.094,4.621-5.204,6.209                        c3.668-1.267,6.829-4.262,6.098-7.675c0.184-0.397,0.323-0.765,0.406-1.099c0.248-0.202,0.482-0.423,0.709-0.654                        c1.956,3.655-1.466,7.094-4.836,9.461c5.776-1.978,7.517-6.81,5.221-9.872c0.325-0.368,0.63-0.759,0.92-1.166                        c2.575,2.391,2.684,6.826-3.763,11.072c7.39-2.515,7.495-9.24,3.984-11.38c0.715-1.045,1.748-2.831,2.339-3.893                        c6.58,3.471,10.921,8.527,5.678,13.799c-4.543,4.599-13.541,7.157-19.81,8.67c24.591-3.466,29.757-15.976,14.267-22.709                        c0.294-0.538,0.581-1.08,0.856-1.629C98.629,46.202,93.55,59.498,66.015,64.552z M23.951,48.561                        c13.08,6.486,37.41,5.998,48.515-1.393C66.216,57.149,33.195,58.05,23.951,48.561z M74.275,44.661                        C58.5,55.33,23.804,51.983,18.688,42.437h-0.001c-0.235-0.368-5.746-7.14-7.838-17.198c10.084,11.043,60.882,11.594,72.083,0.192                        C81.19,35.74,74.87,43.666,74.275,44.661z M24.394,26.889c1.442,0.87,3.095,1.401,4.824,1.673c-1.059,0.038-1.8,0.824-2.398,1.696                        c-0.968-0.187-1.936-0.391-2.901-0.618C24.619,29.041,24.866,27.917,24.394,26.889z M45.867,25.942                        c-0.435,0.513-0.602,1.167-0.505,1.804c-0.9-0.562-2.257-0.848-3.054-0.223c-0.704,0.551-0.32,0.942-1.449,0.836                        c-1.605-0.15-3.165-0.267-3.565,1.426c-0.339,0.082-0.675,0.262-0.938,0.497c-0.569-0.889-1.552-1.364-2.616-1.538                        c5.735-0.372,9.887-2.515,11.589-4.386C45.295,24.912,45.497,25.475,45.867,25.942z M36.757,31.226                        c0.385-1.002,1.232-0.339,1.32-0.942c0.251-1.701,2.528-1.422,3.779-1.172c0.137,0.027,0.309-0.038,0.338-0.192                        c0.309-1.604,2.047-1.081,2.923-0.312c1.368,1.201,0.653,2.438-0.568,3.362c-2.52-0.046-4.827-0.127-7.896-0.382l0-0.001                        C36.785,31.479,36.79,31.364,36.757,31.226z M30.809,29.925c2.241-1.061,3.586-0.223,5.043,1.229                        c-0.011,0.125,0.009,0.248,0.061,0.368c-2.826-0.253-5.699-0.624-8.574-1.161C29.882,27.617,29.968,30.323,30.809,29.925z                        M29.991,28.668c0.489,0.056,0.982,0.095,1.476,0.113C30.793,28.906,30.712,28.868,29.991,28.668z M28.324,27.579                        c7.608,0.363,13.952-1.948,16.935-4.256C42.992,26.304,36.412,29.182,28.324,27.579z M48.391,22.064                        c-1.717,0.958-1.621,3.577,0.391,3.899c-0.18,1.022-0.046,2.092,0.498,3.095c-2.538,0.582-3.88-1.622-2.568-2.818                        c0.151-0.138,0.165-0.44,0-0.576c-0.712-0.581-0.846-1.345-0.683-2.171c1.242-1.722,1.013-2.023,2.271-3.399                        C48.102,20.749,48.103,21.465,48.391,22.064z M49.207,22.041c-0.602-0.841,0.212-4.125,1.799-2.855                        c0.18,0.143,0.405,0.165,0.584,0c2.193-2.026,4.475-0.655,5.579,1.612c-3.557-0.453-7.346,1.241-8.285,4.708                        c-0.978-0.373-0.941-1.354,0.111-2.941C49.194,22.498,49.349,22.238,49.207,22.041z M65.033,18.997                        c-0.312-0.273-1.024,0.228-1.256,0.349c-0.619,0.323-1.31,0.633-1.854,1.083c-0.161-0.366-2.555-4.312-2.935-4.454                        c-0.001-0.05-0.007-0.099-0.011-0.147c0.209,0.307,4.115,1.239,5.472,1.056c0.048,0.035,0.101,0.053,0.156,0.06                        C64.396,17.635,64.554,18.425,65.033,18.997z M69.203,18.564c-0.721-0.074-1.494-0.096-2.199-0.268                        c-0.307-0.075-0.554-0.208-0.869-0.191c-0.299,0.016-0.585,0.372-0.896,0.175c-0.638-0.404,0.285-3.274,2.31-1.752                        c0.155,0.184,0.518,0.186,0.672,0c0.617-0.888,1.377-0.716,2.281,0.516c0.022,0.125,0.169,0.228,0.293,0.223                        c0.984,0.345,1.46,0.917,1.437,1.712C72.238,18.758,69.427,18.587,69.203,18.564z M73.975,19.799                        c4.443,0.053,4.74-0.946,5.308,0.316c0.219,0.487,0.095,1.107,0.017,1.619c-2.46,0.652-4.917,0.63-7.453,0.631                        c-5.206,0.002-4.311,0.373-6.618,0.705c0.292-1.174,0.508-2.476,0.548-3.708c0.105-0.19,0.196-0.384,0.265-0.58                        C68.48,19.604,71.478,19.769,73.975,19.799z M79.169,22.489c-1.335,1.821-4.987,1.934-6.951,2.32                        c-2.615,0.515-5.227,1.023-7.854,1.472c0.193-0.795,0.367-1.59,0.487-2.398c0.045-0.017,0.089-0.037,0.126-0.066                        C67.89,21.556,73.738,23.992,79.169,22.489z M46.767,29.641c0.898,0.473,2,0.446,3.008,0.167c0.852,1.059,2.082,1.683,3.381,2.025                        c-2.596,0.128-4.861,0.157-7.155,0.148C46.603,31.425,46.911,30.469,46.767,29.641z M49.884,24.921                        c1.832-3.968,7.92-4.961,11.217-1.623c-0.01,0.05-0.008,0.103,0.016,0.154c1.414,2.959,0.065,6.446-3.163,7.444                        C54.334,32.014,47.61,29.843,49.884,24.921z M64.343,23.754c-0.259,0.689-0.473,1.389-0.668,2.098                        c-0.641-0.931-0.725-1.278-1.212-2.498c0.341-0.146,1.741-1.775,2.149-2.324C64.554,21.326,64.176,23.503,64.343,23.754z                        M62.322,23.041c-0.26-0.157-0.093,1.144-0.027,1.441c-0.111-0.278-0.689-1.443-0.985-1.397c-0.032-0.046-0.066-0.091-0.1-0.135                        c0.424-0.001,1.276-1.676,1.448-2.043c0.537-0.229,0.722-0.386,1.907-1.027C64.077,20.703,62.797,22.414,62.322,23.041z                        M61.14,21.999c-2.085-1.617-3.143-2.233-2.777-3.634c0.169-0.138,0.481-1.333,0.528-1.542c0.176,0.374,2.108,3.855,2.841,4.47                        C61.529,21.519,61.333,21.754,61.14,21.999z M59.102,21.315c-0.416-0.182-0.855-0.316-1.307-0.412                        c0.084-0.135,0.016-0.473-0.012-0.63C57.991,20.46,58.619,20.911,59.102,21.315z M61.689,29.161                        c0.503,1.107,2.181,1.725,3.433,0.757c0.274,0.219,0.57,0.401,0.878,0.54c-2.29,0.4-4.448,0.68-6.775,0.916                        C60.237,30.862,61.091,30.08,61.689,29.161z M65.4,29.115c-0.167-0.137-0.391-0.16-0.557,0c-1.232,1.192-2.42,0.179-2.584-1.064                        c0.345-0.891,0.45-1.857,0.269-2.797c0.467,1.177,1.206,1.98,2.5,1.725c0.526-0.105,4.922-0.84,4.94-1.002                        c-0.006,0.051-0.001,0.104,0.023,0.154C71.45,29.243,67.598,30.912,65.4,29.115z M62.426,16.054                        c-1.309-0.161-3.375-0.597-3.465-0.348c-0.026-0.074-0.131-0.085-0.184-0.035c-0.516,0.479-0.788,1.294-1.044,1.975                        c-0.264,0.376-0.499,0.773-0.568,1.186c-0.477-0.622-1.164-1.034-1.929-1.237c0.163-1.563,0.837-0.888,2.204-1.773                        c0.701-0.452,1.083-1.075,1.945-1.369c1.855-0.631,3.625,0.203,4.624,1.727C63.485,16.113,62.941,16.117,62.426,16.054z                        M54.706,17.489c-1.183-0.163-2.473,0.136-3.443,0.896c-0.255-0.143-0.508-0.216-0.753-0.231c1.273-0.873,3.349-1.798,4.767-2.379                        C54.823,16.237,54.638,16.846,54.706,17.489z M83.056,20.227c0.433,0.899,0.341,1.427,0.365,1.459                        c-0.006,0.066-0.019,0.203-0.039,0.418c-0.004,0.037-0.006,0.082-0.013,0.119c-0.01,0.03-0.02,0.062-0.031,0.096                        c-0.019,0.067-0.039,0.141-0.062,0.221c-0.011,0.078-0.061,0.175-0.105,0.277c-0.048,0.101-0.084,0.213-0.146,0.325                        c-0.479,0.903-1.648,2.098-3.536,3.13c-2.762,1.553-6.207,2.596-9.271,3.323c0.893-1.024,1.476-2.839,0.284-3.717                        c0.403-0.074,4.472-0.82,5.829-1.121c-0.06,0.051-0.145,0.116-0.29,0.235c-0.665,0.547-1.144,0.139-1.636,0.566                        c-0.412,0.357-0.586,2.432-2.634,1.479c-0.091-0.042-0.224,0.052-0.153,0.154c0.883,1.267,2.26,0.586,2.895-0.48                        c0.236-0.397-0.216-0.5,0.757-0.729c0.11-0.026,0.252,0.059,0.365,0.047c0.362-0.037,0.637-0.022,0.954-0.249                        c0.419-0.3,0.639-0.767,0.494-1.22c1.688-0.516,3.567-1.603,3.166-3.482c0.042-0.835-0.409-2.275-1.733-2.334                        c-0.874-0.684-2.001-1.348-3.049-1.221c-0.113-0.896-1.344-1.565-2.063-0.5c-0.067,0.099,0.092,0.224,0.167,0.129                        c0.78-0.727,1.08-0.468,0.902,0.776c-0.451,0.346-0.024,0.973,0.424,0.726c0.001,0.002,0.002,0.003,0.003,0.006                        c0.783-0.562,1.557-0.112,2.336,0.197c-0.399,0.066-1.522,0.319-4.306,0.171c0.393-0.951-0.243-1.777-0.779-2.104                        c-0.2-0.122-0.799-0.179-0.945-0.293c-0.438-0.343-0.547-0.898-1.072-1.218c-0.528-0.322-1.211-0.438-1.793-0.198                        c-0.214,0.089-0.38,0.318-0.597,0.375c-0.367,0.097-1.718-0.547-2.737,0.624c-0.69-1.33-1.868-2.27-3.211-2.615                        c1.35-0.38,2.703-0.746,4.059-1.105C70.607,13.389,80.893,15.917,83.056,20.227z M63.753,12.162                        c-20.15,5.326-14.248,8.454-21.446,12.124c-9.925,5.059-27.649,2.582-12.529-2.649c2.284-0.79,3.59-1.167,5.928-1.543                        c0.145,0.083,0.299,0.164,0.457,0.243c-2.487,0.426-4.627,1.102-6.169,1.731c-1.837,0.747-2.867,1.377-2.833,1.447                        c0.035,0.078,1.148-0.389,3.014-0.966c3.754-1.169,6.609-1.381,7.533-1.491l-0.011-0.104c2.606,0.829,5.921,0.831,7.573-1.822                        c0.367-0.013,0.245-0.016,0.689-0.03c8.326-8.689,18.241-10.517,30.077-14.254c0.367-0.116,17.048-5.882,15.832-2.597                        C87.449,6.237,71.208,10.191,63.753,12.162z"
       id="path1606"
       style="fill:#66a55f;fill-opacity:1" />
    <path
       d="M53.289,25.954c0.25,0.054,0.507-0.129,0.744-0.136c0.802-0.021,0.747,0.216,1.138,0.637                        c1.501,1.618,2.49,0.232,3.697,0.554c0.845,0.226,0.951-1.411-0.48-2.561c0.284-0.154,0.507-0.391,0.529-0.759                        c0.051-0.819-0.785-0.803-1.351-0.935c-0.804-0.186-2.653-1.678-3.208-0.756c-0.428-0.186-0.979,0.264-1.04,0.792                        c-0.073,0.624,0.339,0.986-0.119,1.493c-0.307,0.34-0.662,0.463-0.555,1.011C52.71,25.636,52.93,25.876,53.289,25.954z                        M53.941,25.082c0.074-0.128,0.263-0.204,0.351-0.339c0.176-0.269,0.19-0.559,0.169-0.867c-0.004-0.062-0.485-1.467-0.007-1.307                        c0.16,0.054,0.286-0.138,0.211-0.273c0.827-0.17,1.348,0.104,1.564,0.824c0.24,0.316,0.424,0.545,0.896,0.691                        c0.204,0.063,1.174-0.034,0.477,0.238c-0.251,0.098-0.346,0.562,0,0.611c0.783,0.11,1.059,0.653,1.011,1.282                        c-1.01-0.1-1.288,0.48-2.747,0.014c0.135,0.032,0.271,0.04,0.401,0.018c0.36-0.056,0.606-0.265,0.748-0.458                        c0.287-0.414,0.172-0.725,0.185-0.712c-0.333,1.061-1.836,0.731-1.736-0.232c0.035-0.416,0.43-0.796,0.808-0.853                        c0.011,0.015-0.278-0.147-0.732,0.073c-0.213,0.11-0.458,0.322-0.569,0.668c-0.165,0.491,0.089,1.18,0.716,1.439                        C54.896,25.638,53.036,25.451,53.941,25.082z"
       id="path1608"
       style="fill:#66a55f;fill-opacity:1" />
    <path
       d="M38.407,15.281c0.201-0.116,0.396-0.188,0.6-0.239c-0.102,0.27-0.173,0.547-0.219,0.859                        c-0.037,0.247,0.095,0.446,0.355,0.466c0.789,0.059,3.431,0.219,4.112-0.184c0.759-0.449,0.111-1.175-0.346-1.553                        c-0.783-0.646-0.286-1.065-0.29-1.432c-0.003-0.372-0.276-0.735-0.597-0.903c-0.611-0.317-2.215,0.408-2.582,0.63                        c-0.01-0.057-0.043-0.111-0.103-0.131c-1.283-0.435-1.92,1.149-1.606,2.211C37.814,15.291,38.146,15.433,38.407,15.281z                        M39.181,13.158c-0.079,0.245,0.376,0.43,0.635,0.379c-0.423,0.419-0.2,1.15,0.414,1.293c0.191,0.044,0.166,0.011,0.208-0.015                        c0.014-0.009,0.02-0.003,0.033,0.004c0.131,0.181,0.183,0.414,0.431,0.501c-0.119-0.368,0.035-0.788,0.123-1.162                        c-0.181,0.032-0.397,0.124-0.582,0.118c-0.453-0.143-0.513-0.554-0.318-0.867c0.237-0.138,0.473-0.338,0.775-0.408                        c1.395-0.322,0.528,0.381,0.448,0.748c-0.35,1.623,2.687,1.74,0.712,1.796c-0.883,0.025-1.703-0.099-2.556,0.015                        c0.024-0.258,0.096-0.506,0.229-0.743c0.105-0.227-0.067-0.467-0.319-0.415c-0.252,0.07-0.507,0.094-0.766,0.08                        C38.664,13.969,38.72,13.377,39.181,13.158z"
       id="path1610"
       style="fill:#66a55f;fill-opacity:1" />
    <path
       d="M62.083,34.982c6.382,0.111,11.929-1.625,17.254-5.323C72.286,32.559,68.105,33.767,62.083,34.982z"
       id="path1612"
       style="fill:#66a55f;fill-opacity:1" />
    <path
       d="M78.837,32.052c-6.945,3.19-11.502,4.33-16.929,5.494c0,0,0.253,0.003,0.71,0.006                        C68.176,37.594,73.87,35.829,78.837,32.052z"
       id="path1614"
       style="fill:#66a55f;fill-opacity:1" />
    <path
       d="M63.967,40.073c5.309-0.377,10.078-2.114,14.122-5.541c-2.995,1.569-6.879,3.377-14.196,5.049                        c-0.786,0.181-1.426,0.323-1.87,0.413c-0.444,0.096-0.69,0.149-0.69,0.149s0.252,0.002,0.707,0.005                        C62.495,40.151,63.154,40.133,63.967,40.073z"
       id="path1616"
       style="fill:#66a55f;fill-opacity:1" />
    <path
       d="M60.722,42.745c5.955,0.071,11.658-1.286,16.053-5.374C71.599,40.328,66.622,41.437,60.722,42.745z"
       id="path1618"
       style="fill:#66a55f;fill-opacity:1" />
    <path
       d="M60.051,45.352c5.524-0.04,10.301-1.365,14.667-4.681C69.415,42.887,66.091,43.766,60.051,45.352z"
       id="path1620"
       style="fill:#66a55f;fill-opacity:1" />
    <path
       d="M59.026,47.992c4.96,0.053,9.698-0.872,13.513-3.834C67.113,46.34,63.382,46.639,59.026,47.992z"
       id="path1622"
       style="fill:#66a55f;fill-opacity:1" />
    <path
       d="M32.487,47.201c-3.718-1.263-6.92-1.767-11.596-3.662C24.139,46.304,28.451,47.328,32.487,47.201z"
       id="path1624"
       style="fill:#66a55f;fill-opacity:1" />
    <path
       d="M30.076,44.318c-3.127-1.166-6.09-1.731-10.409-3.448C22.511,43.432,26.46,44.465,30.076,44.318z"
       id="path1626"
       style="fill:#66a55f;fill-opacity:1" />
    <path
       d="M28.01,41.487c-2.468-0.985-5.812-1.809-9.567-3.286C21.06,40.682,24.773,41.649,28.01,41.487z"
       id="path1628"
       style="fill:#66a55f;fill-opacity:1" />
    <path
       d="M26.261,38.71c-2.418-1.006-5.334-1.713-9.043-3.178C19.655,37.945,23.19,38.89,26.261,38.71z"
       id="path1630"
       style="fill:#66a55f;fill-opacity:1" />
    <path
       d="M25.003,36.017c-2.463-1.006-5.361-1.668-9.01-3.154C18.383,35.286,21.902,36.224,25.003,36.017z"
       id="path1632"
       style="fill:#66a55f;fill-opacity:1" />
    <path
       d="M24.183,33.392c-2.924-1.116-5.612-1.56-9.413-3.199C17.216,32.694,20.82,33.633,24.183,33.392z"
       id="path1634"
       style="fill:#66a55f;fill-opacity:1" />
    <path
       d="M44.696,17.058c-2.93,4.082-8.79,2.23-8.843-2.794C34.867,19.611,42.305,22.277,44.696,17.058z"
       id="path1636"
       style="fill:#66a55f;fill-opacity:1" />
    <path
       d="M60.928,26.767c-2.335,4.448-8.031,4.543-10.512,0.163C52.179,32.101,59.337,31.964,60.928,26.767z"
       id="path1638"
       style="fill:#66a55f;fill-opacity:1" />
    <path
       d="M52.9,28.058c1.315,1.771,3.939,1.739,5.207-0.07C56.447,29.009,54.586,29.033,52.9,28.058z"
       id="path1640"
       style="fill:#66a55f;fill-opacity:1" />
    <path
       d="M42.42,17.686c-1.76,0.968-3.553,0.591-4.791-0.943C38.034,18.851,41.17,19.6,42.42,17.686z"
       id="path1642"
       style="fill:#66a55f;fill-opacity:1" />
    <path
       d="M87.568,3.99c-9.416,2.481-22.414,6.473-31.604,9.709C65.381,11.218,78.378,7.226,87.568,3.99z"
       id="path1644"
       style="fill:#66a55f;fill-opacity:1" />
    <path
       d="M25.909,25.535c-0.287-0.369-0.2-0.675-0.212-0.663c-0.848,2.619,9.731,2.116,17.349-1.875                        C36.492,25.423,27.019,26.958,25.909,25.535z"
       id="path1646"
       style="fill:#66a55f;fill-opacity:1" />
    <path
       d="M45.693,20.806c1.867-2.405,3.74-4.039,6.785-5.548C49.322,15.885,46.951,17.8,45.693,20.806z"
       id="path1648"
       style="fill:#66a55f;fill-opacity:1" />
    <path
       d="M19.912,21.745c5.774-2.575,8.035-3.487,10.643-4.557C27.14,17.743,22.829,19.536,19.912,21.745z"
       id="path1650"
       style="fill:#66a55f;fill-opacity:1" />
    <path
       d="M65.46,24.333c3.406-0.335,5.094-0.486,9.057-0.772C71.632,22.925,67.925,23.328,65.46,24.333z"
       id="path1652"
       style="fill:#66a55f;fill-opacity:1" />
    <path
       d="M73.035,24.364c-2.325-0.056-5.495,0.41-7.708,1.134C67.652,25.554,70.822,25.088,73.035,24.364z"
       id="path1654"
       style="fill:#66a55f;fill-opacity:1" />
  </g>
</svg>
